<svg width="21" height="21" viewBox="0 0 21 21" fill="none" xmlns="http://www.w3.org/2000/svg">
<g opacity="0.26">
<path d="M2.60209 3.20468C1.86897 2.47156 1.86897 1.28295 2.60209 0.549836C3.33521 -0.183279 4.52384 -0.183279 5.25696 0.549836L20.2752 15.5679C21.0083 16.301 21.0083 17.4896 20.2752 18.2227C19.5421 18.9559 18.3534 18.9559 17.6203 18.2227L2.60209 3.20468Z" fill="#D8D8D8"/>
<mask id="mask0_1_1897" style="mask-type:luminance" maskUnits="userSpaceOnUse" x="2" y="0" width="19" height="19">
<path d="M2.60209 3.20468C1.86897 2.47156 1.86897 1.28295 2.60209 0.549836C3.33521 -0.183279 4.52384 -0.183279 5.25696 0.549836L20.2752 15.5679C21.0083 16.301 21.0083 17.4896 20.2752 18.2227C19.5421 18.9559 18.3534 18.9559 17.6203 18.2227L2.60209 3.20468Z" fill="white"/>
</mask>
<g mask="url(#mask0_1_1897)">
<path d="M32.0888 -11.2635H-12.9658V33.7906H32.0888V-11.2635Z" fill="#00BF80"/>
</g>
</g>
<path d="M9.56119 13.9185L3.37952 20.1001C2.6464 20.8332 1.45777 20.8332 0.724647 20.1001C-0.00847593 19.367 -0.00847593 18.1783 0.724647 17.4452L6.90632 11.2636L0.724647 5.082C-0.00847593 4.34889 -0.00847593 3.16028 0.724647 2.42716C1.45777 1.69405 2.6464 1.69405 3.37952 2.42716L9.56119 8.60877L15.7429 2.42716C16.476 1.69405 17.6646 1.69405 18.3977 2.42716C19.1309 3.16028 19.1309 4.34889 18.3977 5.082L12.2161 11.2636L18.3977 17.4452C19.1309 18.1783 19.1309 19.367 18.3977 20.1001C17.6646 20.8332 16.476 20.8332 15.7429 20.1001L9.56119 13.9185Z" fill="black"/>
<mask id="mask1_1_1897" style="mask-type:luminance" maskUnits="userSpaceOnUse" x="0" y="1" width="19" height="20">
<path d="M9.56119 13.9185L3.37952 20.1001C2.6464 20.8332 1.45777 20.8332 0.724647 20.1001C-0.00847593 19.367 -0.00847593 18.1783 0.724647 17.4452L6.90632 11.2636L0.724647 5.082C-0.00847593 4.34889 -0.00847593 3.16028 0.724647 2.42716C1.45777 1.69405 2.6464 1.69405 3.37952 2.42716L9.56119 8.60877L15.7429 2.42716C16.476 1.69405 17.6646 1.69405 18.3977 2.42716C19.1309 3.16028 19.1309 4.34889 18.3977 5.082L12.2161 11.2636L18.3977 17.4452C19.1309 18.1783 19.1309 19.367 18.3977 20.1001C17.6646 20.8332 16.476 20.8332 15.7429 20.1001L9.56119 13.9185Z" fill="white"/>
</mask>
<g mask="url(#mask1_1_1897)">
<path d="M-12.9663 -11.2634L-12.9663 33.7908L32.0884 33.7908V-11.2634L-12.9663 -11.2634Z" fill="#00BF80"/>
</g>
</svg>
