<svg width="12" height="20" viewBox="0 0 12 20" fill="none" xmlns="http://www.w3.org/2000/svg">
<path d="M11.8896 10.0068C11.8841 9.81315 11.8454 9.63607 11.7734 9.47559C11.7015 9.3151 11.5908 9.16016 11.4414 9.01074L3.12402 0.958984C2.88607 0.721029 2.59277 0.602051 2.24414 0.602051C2.01172 0.602051 1.80143 0.657389 1.61328 0.768066C1.4196 0.878743 1.26742 1.02816 1.15674 1.21631C1.04053 1.40446 0.982422 1.61475 0.982422 1.84717C0.982422 2.19027 1.11247 2.49186 1.37256 2.75195L8.89307 9.99854L1.37256 17.2534C1.11247 17.519 0.982422 17.8206 0.982422 18.1582C0.982422 18.3962 1.04053 18.6092 1.15674 18.7974C1.26742 18.9855 1.4196 19.1349 1.61328 19.2456C1.80143 19.3618 2.01172 19.4199 2.24414 19.4199C2.59277 19.4199 2.88607 19.2982 3.12402 19.0547L11.4414 11.0029C11.5964 10.8535 11.7098 10.6986 11.7817 10.5381C11.8537 10.3721 11.8896 10.195 11.8896 10.0068Z" fill="#828282"/>
</svg>
