<svg width="18" height="22" viewBox="0 0 18 22" fill="none" xmlns="http://www.w3.org/2000/svg">
<path d="M2.11035 11.0068C2.11589 10.8132 2.15462 10.6361 2.22656 10.4756C2.2985 10.3151 2.40918 10.1602 2.55859 10.0107L10.876 1.95898C11.1139 1.72103 11.4072 1.60205 11.7559 1.60205C11.9883 1.60205 12.1986 1.65739 12.3867 1.76807C12.5804 1.87874 12.7326 2.02816 12.8433 2.21631C12.9595 2.40446 13.0176 2.61475 13.0176 2.84717C13.0176 3.19027 12.8875 3.49186 12.6274 3.75195L5.10693 10.9985L12.6274 18.2534C12.8875 18.519 13.0176 18.8206 13.0176 19.1582C13.0176 19.3962 12.9595 19.6092 12.8433 19.7974C12.7326 19.9855 12.5804 20.1349 12.3867 20.2456C12.1986 20.3618 11.9883 20.4199 11.7559 20.4199C11.4072 20.4199 11.1139 20.2982 10.876 20.0547L2.55859 12.0029C2.40365 11.8535 2.2902 11.6986 2.21826 11.5381C2.14632 11.3721 2.11035 11.195 2.11035 11.0068Z" fill="#828282"/>
</svg>
