<svg style="width:0; height:0; visibility: hidden;" xmlns="http://www.w3.org/2000/svg">

    <!-- phone -->
	<symbol id="svg-phone" viewBox="0 0 18 18">
  <path d="M16.1359 11.4134C15.0951 11.4134 14.0732 11.2507 13.1047 10.9306C12.6302 10.7688 12.0469 10.9172 11.7572 11.2147L9.84575 12.6577C7.62898 11.4744 6.26349 10.1093 5.09633 7.90918L6.49684 6.0475C6.8607 5.68412 6.99121 5.15332 6.83485 4.65527C6.51344 3.68176 6.35017 2.66029 6.35017 1.61904C6.35021 0.866839 5.73826 0.254883 4.9861 0.254883H1.86412C1.11196 0.254883 0.5 0.866839 0.5 1.619C0.5 10.2407 7.51418 17.2549 16.1359 17.2549C16.8881 17.2549 17.5 16.6429 17.5 15.8908V12.7775C17.5 12.0254 16.888 11.4134 16.1359 11.4134Z" fill="#E8573F" />
	</symbol>

    <!-- decor -->
	<symbol id="svg-decor" viewBox="0 0 140 54">

  <path d="M130.935 14.0563C127.76 8.66905 116.331 6.29058 110.783 5.11032C100.551 2.9337 89.0422 3.81062 78.6167 3.17605C62.9 2.21943 43.3979 0.795155 28.5267 7.09294C18.9352 11.1548 6.59494 14.1143 2.8519 25.3234C1.51328 29.3321 0.243831 33.8594 1.54394 38.0412C3.29987 43.6891 9.29981 45.526 14.2844 47.6158C33.276 55.5781 56.4343 52.3548 76.6789 52.3548C90.4758 52.3548 104.663 52.4464 117.855 47.8093C127.323 44.4816 132.387 41.4278 137.233 32.5286C139.344 28.6506 139.234 23.6243 138.589 19.2788C136.99 8.50742 124.567 5.09953 116.111 1" stroke="#00BF80" stroke-width="2" stroke-linecap="round" />

	</symbol>

    <!-- deadline -->
	<symbol id="svg-deadline" viewBox="0 0 22 20">
		<g>

  <path d="M17.0875 11.0345C17.2496 10.4016 17.2573 9.75187 17.1092 9.09484C16.8811 8.0832 16.2838 7.0816 15.3328 6.11848C14.3042 5.07598 13.7248 3.85711 13.6108 2.49574C13.5249 1.46883 13.7498 0.739453 13.7518 0.733359L13.9876 0L13.2134 0.210586C11.0889 0.788594 9.58225 1.61227 8.60686 2.72891C7.76538 3.69145 7.30014 4.89078 7.19309 6.38035C6.79704 6.19723 6.40034 6.03977 6.33242 6.01293L5.93506 5.85637L5.76394 6.23203C4.90134 8.12289 4.98145 9.65793 5.38069 10.8143C4.89043 11.6895 4.6123 12.6886 4.6123 13.75C4.6123 17.2021 7.5507 20 11.1748 20C14.7989 20 17.7373 17.2021 17.7373 13.75C17.7373 12.7771 17.504 11.8555 17.0875 11.0345ZM6.40288 6.94977C6.73933 7.0932 7.15655 7.2827 7.35842 7.41516L8.04416 7.86316V7.07152C8.04416 5.4593 8.44792 4.21324 9.2791 3.26203C10.034 2.39809 11.1793 1.72516 12.7674 1.21492C12.7231 1.55855 12.6949 2.00684 12.7353 2.52289C12.8193 3.6023 13.2275 5.20141 14.6957 6.68914C15.741 7.7484 16.2922 8.83301 16.3364 9.88953C15.5289 8.91207 14.4221 8.16957 13.1474 7.7875C11.9233 6.60008 11.4645 4.92465 11.4645 4.92465C10.3417 5.80965 9.68672 6.71086 9.46052 7.71578C8.08969 8.06824 6.89704 8.83273 6.03764 9.86148C5.88186 8.95082 6.00298 7.96996 6.40288 6.94977ZM11.7977 7.52809C11.5927 7.50977 11.385 7.5 11.1748 7.5C10.9191 7.5 10.6666 7.51434 10.4186 7.54148C10.5596 7.15637 10.7922 6.77945 11.1222 6.4041C11.2094 6.57957 11.3087 6.76512 11.4209 6.95465C11.54 7.15547 11.6657 7.34648 11.7977 7.52809ZM16.8459 14.1663C16.7997 14.7504 16.6555 15.318 16.4159 15.8581C16.3806 15.9362 16.3441 16.0144 16.3056 16.0907C16.0986 15.9857 15.8397 16.0546 15.7211 16.25C15.6032 16.4446 15.6699 16.6925 15.8679 16.8109C15.6705 17.085 15.4468 17.3419 15.1963 17.5805C14.9463 17.8186 14.6765 18.0322 14.3887 18.2202C14.2644 18.031 14.0042 17.9675 13.7998 18.0798C13.5947 18.1927 13.5223 18.4387 13.6325 18.6364C13.5524 18.6731 13.471 18.7085 13.3884 18.7414C12.8212 18.9697 12.2252 19.107 11.6113 19.151C11.6029 18.9282 11.4106 18.75 11.1748 18.75C10.939 18.75 10.7467 18.9282 10.7384 19.151C10.1244 19.1071 9.5284 18.9697 8.96123 18.7415C8.87855 18.7085 8.79717 18.6731 8.71707 18.6365C8.82732 18.4387 8.75488 18.1928 8.5498 18.0798C8.34538 17.9675 8.08518 18.031 7.96086 18.2202C7.6731 18.0323 7.4033 17.8186 7.15335 17.5806C6.90278 17.342 6.67912 17.085 6.48171 16.8109C6.67974 16.6925 6.74639 16.4447 6.62781 16.25C6.50989 16.0547 6.25096 15.9857 6.044 16.0914C6.00552 16.0145 5.96902 15.937 5.93375 15.8582C5.69405 15.318 5.54988 14.7504 5.50374 14.1663C5.73769 14.1577 5.9248 13.9746 5.9248 13.75C5.9248 13.5254 5.73769 13.3423 5.50374 13.3337C5.54988 12.749 5.69409 12.182 5.93375 11.6419C5.96898 11.5631 6.00552 11.4856 6.044 11.4087C6.251 11.5137 6.50989 11.4454 6.62847 11.25C6.74639 11.0554 6.67974 10.8075 6.48171 10.6891C6.67908 10.4151 6.90278 10.1581 7.15335 9.9198C7.4033 9.68176 7.6731 9.46816 7.96086 9.28016C8.08518 9.46938 8.34538 9.53254 8.5498 9.41992C8.75488 9.3073 8.82732 9.06102 8.71707 8.86359C8.79717 8.82695 8.87859 8.79187 8.96123 8.75859C9.5284 8.53031 10.1244 8.39301 10.7384 8.34906C10.7467 8.5718 10.939 8.75 11.1748 8.75C11.4106 8.75 11.6029 8.5718 11.6113 8.34898C12.2252 8.39293 12.8212 8.53027 13.3884 8.75852C13.4711 8.7918 13.5524 8.82688 13.6325 8.86352C13.5223 9.06098 13.5947 9.30723 13.7998 9.41984C14.0042 9.53246 14.2644 9.4693 14.3887 9.28008C14.6765 9.46805 14.9463 9.68168 15.1963 9.91973C15.4468 10.1581 15.6705 10.415 15.8679 10.6891C15.6699 10.8075 15.6032 11.0553 15.7211 11.25C15.8397 11.4453 16.0986 11.5143 16.3056 11.4086C16.3441 11.4855 16.3806 11.563 16.4159 11.6418C16.6556 12.182 16.7997 12.749 16.8459 13.3337C16.6119 13.3423 16.4248 13.5254 16.4248 13.75C16.4248 13.9746 16.6119 14.1577 16.8459 14.1663Z" fill="#00BF80" />
  <path d="M13.959 15.8124L11.6127 13.5773V10.4166C11.6127 10.1864 11.4166 10 11.175 10C10.9334 10 10.7373 10.1864 10.7373 10.4166V13.75C10.7373 13.8648 10.7866 13.9697 10.8655 14.0448L13.3405 16.4014C13.5116 16.5643 13.7885 16.5643 13.959 16.4014C14.1301 16.239 14.1301 15.9754 13.959 15.8124Z" fill="#00BF80" />
		</g>
	</symbol>

    <!-- time -->
	<defs id="clip0_1_2896">
    <clipPath>
      <rect width="20" height="20" fill="white" transform="translate(0.674805)" />
    </clipPath>
	</defs>
	<symbol id="svg-time" viewBox="0 0 21 20">
		<g clip-path="url(#clip0_1_2896)">
            <path d="M4.05322 7.07031H1.75635V8.24219H4.05322V7.07031Z" fill="#00BF80" />
    <path d="M4.05322 11.7578H1.75635V12.9297H4.05322V11.7578Z" fill="#00BF80" />
    <path d="M4.05332 9.41406H0.674805V10.5859H4.05332V9.41406Z" fill="#00BF80" />
    <path d="M12.9499 2.27515C8.69045 2.27515 5.2251 5.7405 5.2251 9.99995C5.2251 14.2594 8.69041 17.7248 12.9499 17.7248C17.2094 17.7248 20.6747 14.2594 20.6747 9.99995C20.6747 5.7405 17.2094 2.27515 12.9499 2.27515ZM12.9499 16.5529C9.33662 16.5529 6.39697 13.6132 6.39697 9.99995C6.39697 6.38667 9.33662 3.44702 12.9499 3.44702C16.5632 3.44702 19.5029 6.38667 19.5029 9.99995C19.5029 13.6132 16.5632 16.5529 12.9499 16.5529Z" fill="#00BF80" />
    <path d="M13.3281 10.2911V6.5061H12.1562V10.9106L15.1761 12.9686L15.8361 12.0002L13.3281 10.2911Z" fill="#00BF80" />
		</g>
	</symbol>


    <!-- heart -->
	<symbol id="svg-heart" viewBox="0 0 21 20">
		<g>
  <path d="M4.74347 10.7963L9.42655 16.0892C10.0899 16.8388 11.2597 16.8388 11.9231 16.0892L16.6061 10.7963C18.0002 9.22067 18.7245 7.23917 17.6771 5.34964C16.4669 3.16652 14.2494 2.72032 12.3224 4.18638C11.6598 4.69043 11.116 5.26604 10.8504 5.56468C10.7581 5.66845 10.5915 5.66845 10.4992 5.56468C10.2336 5.26604 9.6898 4.69043 9.02722 4.18638C7.10024 2.72032 4.88268 3.16652 3.67254 5.34964C2.62514 7.23917 3.34936 9.22067 4.74347 10.7963Z" stroke="#00BF80" stroke-linejoin="round"/>
		</g>
	</symbol>

	    <!-- arrow-round -->
	<symbol id="svg-arrow-round" viewBox="0 0 27 30">
		<g>
  <path d="M1.86111 22.2376C1.94712 23.3715 3.08809 24.7397 3.9071 25.4887C5.46409 26.9125 7.71222 27.5347 9.72698 27.9307C13.6216 28.6962 18.0085 27.9114 21.0575 25.2823C24.2362 22.5414 26.0765 17.9617 25.597 13.8162C25.1581 10.0212 23.2775 6.39158 20.0571 4.23604C17.5861 2.58209 14.9275 1.18582 11.9123 2.3448C9.75843 3.1727 9.02416 5.17928 7.54196 6.77233C7.36983 6.95732 7.09754 7.11402 6.96091 7.32843C6.65265 7.81217 8.06722 7.02641 8.62274 6.88443C9.21511 6.73304 9.81714 6.65387 10.4122 6.52176C10.8744 6.41914 9.4764 6.67516 9.01877 6.7965C8.59763 6.90817 7.29381 7.83366 7.05087 7.18726C6.44287 5.56952 6.92813 3.7576 6.34735 2.12592" stroke="white" stroke-width="2" stroke-linecap="round" />
		</g>
	</symbol>

	    <!-- arrow-double -->
	<symbol id="svg-arrow-double" viewBox="0 0 18 19">

  <path d="M12 13.3535L10.9313 12.3035L14.3813 8.85352L10.9313 5.40352L12 4.35352L16.5 8.85352L12 13.3535ZM1.5 14.8535V11.8535C1.5 10.816 1.8625 9.93477 2.5875 9.20977C3.325 8.47227 4.2125 8.10352 5.25 8.10352H9.88125L7.18125 5.40352L8.25 4.35352L12.75 8.85352L8.25 13.3535L7.18125 12.3035L9.88125 9.60352H5.25C4.625 9.60352 4.09375 9.82227 3.65625 10.2598C3.21875 10.6973 3 11.2285 3 11.8535V14.8535H1.5Z" fill="#00BF80" />

	</symbol>


	    <!-- arrow-down -->
	<symbol id="svg-arrow-down" viewBox="0 0 10 6">

  <path fill-rule="evenodd" clip-rule="evenodd" d="M5.09937 5.00937C4.97545 5.1349 4.77455 5.1349 4.65063 5.00937L0.842938 1.15223C0.719021 1.0267 0.719021 0.823185 0.842938 0.697659C0.966854 0.572133 1.16776 0.572133 1.29168 0.697659L4.875 4.32752L8.45832 0.697659C8.58224 0.572134 8.78315 0.572134 8.90706 0.697659C9.03098 0.823185 9.03098 1.0267 8.90706 1.15223L5.09937 5.00937Z" fill="#1C1D22" stroke="white" stroke-linecap="round" stroke-linejoin="round" />

	</symbol>

		<!-- home -->
	<defs  id="clip0_1_703">
    <clipPath>
      <rect width="17.7778" height="16.6667" fill="white" transform="translate(0.611084 0.5)" />
    </clipPath>
  </defs>
	<symbol id="svg-home" viewBox="0 0 19 18">

  <g opacity="0.96" clip-path="url(#clip0_1_703)">
    <path d="M18.1742 7.64583L11.2853 1.19445C10.8048 0.763261 10.1653 0.522583 9.50013 0.522583C8.83497 0.522583 8.19547 0.763261 7.71495 1.19445L0.826056 7.64583C0.687512 7.77678 0.609951 7.95386 0.610353 8.1383C0.610755 8.32274 0.689086 8.49952 0.828199 8.62994C0.967312 8.76035 1.15588 8.83379 1.35261 8.83417C1.54935 8.83454 1.73823 8.76183 1.87791 8.63195L2.83346 7.72917V13.6944C2.83382 14.6152 3.22414 15.4982 3.91864 16.1493C4.61315 16.8004 5.55499 17.1663 6.53717 17.1667H12.4631C13.4453 17.1663 14.3871 16.8004 15.0816 16.1493C15.7761 15.4982 16.1664 14.6152 16.1668 13.6944V7.72917L17.1224 8.63195C17.2628 8.76103 17.4516 8.83335 17.6483 8.83335C17.845 8.83335 18.0338 8.76103 18.1742 8.63195C18.313 8.50083 18.3909 8.3236 18.3909 8.13889C18.3909 7.95418 18.313 7.77695 18.1742 7.64583ZM13.2038 14.3889C13.2038 14.5731 13.1258 14.7497 12.9869 14.8799C12.848 15.0102 12.6596 15.0833 12.4631 15.0833C12.2666 15.0833 12.0782 15.0102 11.9393 14.8799C11.8004 14.7497 11.7224 14.5731 11.7224 14.3889V13C11.7222 12.8159 11.6441 12.6393 11.5052 12.5091C11.3663 12.3789 11.178 12.3057 10.9816 12.3056H8.01865C7.82225 12.3057 7.63394 12.3789 7.49506 12.5091C7.35618 12.6393 7.27808 12.8159 7.27791 13V14.3889C7.27791 14.5731 7.19987 14.7497 7.06095 14.8799C6.92203 15.0102 6.73362 15.0833 6.53717 15.0833C6.34071 15.0833 6.1523 15.0102 6.01338 14.8799C5.87447 14.7497 5.79643 14.5731 5.79643 14.3889V13C5.79707 12.4477 6.03141 11.9181 6.44801 11.5275C6.86462 11.137 7.42948 10.9173 8.01865 10.9167H10.9816C11.5708 10.9173 12.1356 11.137 12.5522 11.5275C12.9689 11.9181 13.2032 12.4477 13.2038 13V14.3889Z" fill="currentColor" />
  </g>

	</symbol>

	    <!-- service -->
	<symbol id="svg-service" viewBox="0 0 15 14">

   <path d="M13.5405 5.16333H8.72412C8.59981 5.16333 8.48058 5.21271 8.39267 5.30063C8.30475 5.38852 8.25537 5.50774 8.25537 5.63208V12.8555C8.25575 12.9797 8.30525 13.0987 8.39307 13.1865C8.48091 13.2744 8.59993 13.3239 8.72412 13.3243H13.5405C13.6647 13.3239 13.7837 13.2744 13.8716 13.1865C13.9594 13.0987 14.0089 12.9797 14.0093 12.8555V5.63208C14.0093 5.50774 13.9599 5.38852 13.872 5.30063C13.7841 5.21271 13.6648 5.16333 13.5405 5.16333Z" fill="currentColor" />
  <path d="M13.5405 0.818787H8.72412C8.59981 0.818787 8.48058 0.868174 8.39267 0.956081C8.30475 1.04399 8.25537 1.16322 8.25537 1.28754V3.69456C8.25575 3.81878 8.30525 3.93779 8.39307 4.02561C8.48091 4.11343 8.59993 4.16296 8.72412 4.16331H13.5405C13.6647 4.16296 13.7837 4.11343 13.8716 4.02561C13.9594 3.93779 14.0089 3.81878 14.0093 3.69456V1.28754C14.0093 1.16322 13.9599 1.04399 13.872 0.956081C13.7841 0.868174 13.6648 0.818787 13.5405 0.818787Z" fill="currentColor" />
  <path d="M6.78672 8.36493H1.97266C1.71377 8.36493 1.50391 8.57481 1.50391 8.83368V12.8462C1.50391 13.1051 1.71377 13.315 1.97266 13.315H6.78672C7.04561 13.315 7.25547 13.1051 7.25547 12.8462V8.83368C7.25547 8.57481 7.04561 8.36493 6.78672 8.36493Z" fill="currentColor" />
  <path d="M6.78672 0.818851H1.97266C1.91104 0.818633 1.84998 0.830609 1.79302 0.854091C1.73605 0.877571 1.68429 0.912085 1.64072 0.955658C1.59715 0.999228 1.56262 1.05099 1.53914 1.10796C1.51566 1.16492 1.50369 1.22598 1.50391 1.2876V6.8962C1.50391 7.02051 1.5533 7.13974 1.6412 7.22765C1.72911 7.31555 1.84834 7.36495 1.97266 7.36495H6.78672C6.91103 7.36495 7.03026 7.31555 7.11817 7.22765C7.20608 7.13974 7.25547 7.02051 7.25547 6.8962V1.2876C7.25568 1.22598 7.2437 1.16492 7.22022 1.10796C7.19676 1.05099 7.16223 0.999228 7.11866 0.955658C7.07509 0.912085 7.02332 0.877571 6.96637 0.854091C6.90939 0.830609 6.84833 0.818633 6.78672 0.818851Z" fill="currentColor" />
	</symbol>

	<!-- case -->
	  <defs id="clip0_1_718">
    <clipPath>
      <rect width="21.8571" height="21.8571" fill="white" transform="translate(-1.28564 -4.5)" />
    </clipPath>
  </defs>
	<symbol id="svg-case" viewBox="0 0 18 18">
  <g clip-path="url(#clip0_1_718)">
    <path d="M16.2592 0.340698C16.2452 0.397067 16.224 0.453437 16.1958 0.509806C16.1536 0.664821 16.0901 0.81279 16.0056 0.953713C15.9069 1.15101 15.7942 1.34125 15.6674 1.52445C15.4983 1.74993 15.3151 1.94722 15.1178 2.11633C14.8782 2.31362 14.6104 2.47568 14.3145 2.60251C13.9904 2.74343 13.6451 2.82799 13.2787 2.85617C12.856 2.89845 12.405 2.87026 11.9259 2.77162C11.4045 2.67297 10.8478 2.48977 10.2559 2.22202C9.83316 2.02473 9.60064 1.91199 9.55836 1.8838L2.49813 4.77977L9.5795 8.22534L9.95999 8.07737C10.2841 7.92235 10.6294 7.75324 10.9958 7.57004C11.8131 7.18955 12.553 6.67518 13.2153 6.02694C13.779 5.47734 14.2793 4.84319 14.7161 4.12448C15.0825 3.54669 15.3926 2.93368 15.6462 2.28543C15.8435 1.82039 16.0056 1.35534 16.1324 0.890298L16.2592 0.340698ZM2.15991 6.32288V13.6791L8.7551 17.2514V9.68389L2.15991 6.32288ZM16.83 6.32288L10.2348 9.68389V17.2514L16.83 13.6791V6.32288Z" fill="currentColor" />
  </g>
	</symbol>

	    <!-- user -->
		  <defs id="clip0_1_723">
    <clipPath>
      <rect width="17" height="17" fill="white" />
    </clipPath>
  </defs>
	<symbol id="svg-user" viewBox="0 0 17 17">

  <g clip-path="url(#clip0_1_723)">
    <path d="M8.5 8.5C9.6736 8.5 10.625 7.5486 10.625 6.375C10.625 5.20139 9.6736 4.25 8.5 4.25C7.32639 4.25 6.375 5.20139 6.375 6.375C6.375 7.5486 7.32639 8.5 8.5 8.5Z" stroke="currentColor" />
    <path d="M8.50008 15.5834C12.4121 15.5834 15.5834 12.412 15.5834 8.50002C15.5834 4.588 12.4121 1.41669 8.50008 1.41669C4.58806 1.41669 1.41675 4.588 1.41675 8.50002C1.41675 12.412 4.58806 15.5834 8.50008 15.5834Z" stroke="currentColor" />
    <path d="M12.7281 14.1667C12.6154 12.1185 11.9883 10.625 8.49987 10.625C5.01155 10.625 4.38446 12.1185 4.27173 14.1667" stroke="currentColor" stroke-linecap="round" />
  </g>

	</symbol>
</svg>