<svg width="264" height="326" viewBox="0 0 264 326" fill="none" xmlns="http://www.w3.org/2000/svg">
<g clip-path="url(#clip0_1_2269)">
<rect width="264" height="326" fill="url(#paint0_linear_1_2269)"/>
<g style="mix-blend-mode:soft-light">
<path d="M406.296 372.252L262.369 455.735C259.349 457.493 254.437 457.493 251.418 455.735L15.4093 319.727C12.368 317.968 12.3571 315.14 15.3765 313.393L63.5344 285.449L159.303 229.899C162.323 228.151 167.235 228.151 170.265 229.899L322.211 317.466L406.285 365.918C409.326 367.665 409.337 370.505 406.317 372.252H406.296Z" fill="url(#paint1_linear_1_2269)"/>
</g>
<path d="M408.548 369.107V372.033C408.537 373.169 407.782 374.305 406.283 375.178L262.356 458.662C259.337 460.409 254.425 460.409 251.406 458.662L15.3969 322.653C13.8653 321.769 13.0995 320.611 13.1105 319.464V316.538C13.1105 317.695 13.8763 318.842 15.3969 319.726L251.406 455.746C254.447 457.493 259.359 457.493 262.378 455.746L406.305 372.252C407.804 371.378 408.559 370.242 408.559 369.107H408.548Z" fill="url(#paint2_linear_1_2269)"/>
<g opacity="0.2">
<path d="M272.716 358.864C275.014 360.185 275.036 362.358 272.738 363.69L119.009 275.096C121.307 273.764 125.048 273.764 127.357 275.096L272.705 358.864H272.716Z" fill="#432626"/>
</g>
<g opacity="0.3">
<path d="M272.75 363.701L269.096 365.82L115.367 277.226L119.021 275.107L272.75 363.701Z" fill="#432626"/>
</g>
<g opacity="0.2">
<path d="M111.701 279.344L115.366 277.226L269.095 365.82L265.43 367.938L111.701 279.344Z" fill="#432626"/>
</g>
<g opacity="0.3">
<path d="M265.431 367.938L261.777 370.057L108.048 281.463L111.702 279.344L265.431 367.938Z" fill="#432626"/>
</g>
<g opacity="0.2">
<path d="M104.416 283.57L108.048 281.463L261.777 370.057L258.145 372.164L104.416 283.57Z" fill="#432626"/>
</g>
<g opacity="0.3">
<path d="M258.145 372.164L254.491 374.283L100.762 285.689L104.416 283.57L258.145 372.164Z" fill="#432626"/>
</g>
<g opacity="0.2">
<path d="M100.74 285.711L254.501 374.283C252.182 375.626 248.419 375.626 246.121 374.305L100.773 290.537C98.4642 289.205 98.4642 287.032 100.751 285.711H100.74Z" fill="#432626"/>
</g>
<path d="M395.639 378.432L366.079 395.577L119.076 253.224L148.636 236.079L395.639 378.432Z" fill="#DC8E46"/>
<g opacity="0.7">
<path d="M62.3296 310.838C62.789 311.1 63.1063 311.384 63.2704 311.668L62.6249 311.799C62.4499 311.526 62.1983 311.285 61.8701 311.1C61.3997 310.827 60.8636 310.696 60.2728 310.718C59.6821 310.739 59.1132 310.914 58.5662 311.231C58.0192 311.547 57.7019 311.897 57.6582 312.214C57.6144 312.552 57.8442 312.858 58.3365 313.142C58.6318 313.316 59.0366 313.48 59.5289 313.644L59.0913 313.895C58.6756 313.786 58.2489 313.6 57.8113 313.349C57.1768 312.989 56.8705 312.585 56.9143 312.159C56.9471 311.733 57.319 311.318 58.0301 310.903C58.4677 310.652 58.9491 310.466 59.4523 310.368C59.9556 310.27 60.4588 310.259 60.9511 310.335C61.4434 310.412 61.9138 310.576 62.3405 310.816L62.3296 310.838Z" fill="#432626"/>
<path d="M67.5143 313.906L64.7246 315.522C64.2432 315.806 63.6962 315.937 63.1164 315.937C62.5366 315.937 61.9786 315.773 61.4644 315.479C60.9503 315.184 60.6768 314.856 60.6768 314.529C60.6768 314.201 60.9174 313.884 61.4097 313.6L64.1885 311.984L64.7027 312.279L61.8802 313.917C61.5191 314.125 61.3441 314.343 61.3441 314.561C61.3441 314.791 61.552 315.02 61.9349 315.238C62.3178 315.457 62.6788 315.555 63.0726 315.555C63.4665 315.555 63.8384 315.457 64.2104 315.238L67.022 313.611L67.5252 313.906H67.5143Z" fill="#432626"/>
<path d="M88.0388 325.733L87.6013 325.984L85.6758 324.881L84.2864 325.689L86.0915 326.726L85.643 326.988L83.8379 325.951L82.2516 326.868L84.177 327.971L83.7285 328.233L81.2998 326.835L85.6102 324.335L88.0388 325.733Z" fill="#432626"/>
<path d="M84.4186 323.647L80.1082 326.147L79.605 325.853L82.3837 324.236C82.701 324.051 83.062 323.854 83.4668 323.658H83.4449L78.139 325.001L77.7342 324.771L80.0863 321.703H80.0645C79.791 321.889 79.4299 322.096 79.0142 322.347L76.2683 323.942L75.7979 323.669L80.1082 321.168L80.874 321.605L78.686 324.466H78.7079L83.6637 323.21L84.4076 323.647H84.4186Z" fill="#432626"/>
<path d="M69.8893 315.195C70.3159 315.446 70.6332 315.719 70.8411 316.025L70.2503 316.189C70.0425 315.894 69.758 315.653 69.4189 315.457C69.1563 315.304 68.8937 315.217 68.6202 315.195C68.3577 315.173 68.1279 315.228 67.9201 315.348C67.7779 315.435 67.6685 315.522 67.6357 315.599C67.6028 315.686 67.6028 315.795 67.6575 315.916C67.7122 316.036 67.8216 316.21 67.9967 316.418C68.2921 316.778 68.4343 317.062 68.4233 317.259C68.4233 317.466 68.2592 317.652 67.9638 317.827C67.5809 318.045 67.1543 318.143 66.662 318.1C66.1697 318.056 65.6883 317.903 65.207 317.63C64.6818 317.335 64.3646 317.062 64.2114 316.833L64.6928 316.549C64.8022 316.702 64.9335 316.844 65.0976 316.986C65.2617 317.139 65.4477 317.27 65.6555 317.39C65.9947 317.586 66.301 317.696 66.6073 317.717C66.9027 317.739 67.1652 317.685 67.395 317.554C67.5481 317.466 67.6356 317.379 67.6685 317.291C67.7013 317.204 67.6904 317.095 67.6357 316.964C67.57 316.833 67.4497 316.658 67.2637 316.429C67.0011 316.112 66.8917 315.839 66.9136 315.632C66.9245 315.424 67.0996 315.217 67.4168 315.042C67.7341 314.867 68.1389 314.769 68.5874 314.791C69.036 314.813 69.4626 314.955 69.8893 315.195Z" fill="#432626"/>
<path d="M74.725 318.056L74.2764 318.307L72.9089 317.521L69.0252 319.77L68.522 319.475L72.3947 317.226L71.0272 316.44L71.4648 316.178L74.725 318.056Z" fill="#432626"/>
<path d="M78.1165 320.611C78.0618 321.037 77.6898 321.452 77.0006 321.856C76.3114 322.26 75.5893 322.467 74.8454 322.5C74.1015 322.522 73.4123 322.358 72.7887 321.998C72.1651 321.638 71.8588 321.234 71.9025 320.808C71.9354 320.382 72.3073 319.967 73.0184 319.552C73.7295 319.137 74.4406 318.929 75.1736 318.908C75.9066 318.886 76.5958 319.06 77.2303 319.432C77.8648 319.803 78.1493 320.185 78.1165 320.622V320.611ZM74.7688 322.118C75.3158 322.085 75.8847 321.889 76.4755 321.55C77.0662 321.212 77.3726 320.884 77.4273 320.567C77.482 320.251 77.2741 319.956 76.7927 319.683C76.3114 319.41 75.7972 319.279 75.2502 319.312C74.6922 319.344 74.1234 319.519 73.5435 319.858C72.9637 320.196 72.6355 320.535 72.5918 320.851C72.5371 321.168 72.7449 321.463 73.2263 321.747C73.7077 322.031 74.2218 322.151 74.7688 322.118Z" fill="#432626"/>
<path d="M51.9364 317.39L43.7752 322.129L42.8672 321.605L48.6873 318.231C49.1686 317.947 49.639 317.684 50.0985 317.455C49.9454 317.455 49.7813 317.455 49.5953 317.455C49.4093 317.455 48.5997 317.401 47.1666 317.313L47.2979 316.658L51.1488 316.942L51.9364 317.401V317.39Z" fill="#432626"/>
<path d="M56.0614 325.165L55.208 325.656L52.4512 324.073L53.3045 323.581L56.0614 325.165Z" fill="#432626"/>
<path d="M68.5662 328.069C68.3146 328.757 67.5051 329.489 66.1376 330.286C64.7701 331.083 63.4354 331.586 62.3086 331.728C61.1599 331.87 60.1315 331.684 59.2016 331.149C58.2717 330.614 57.9982 330.046 58.2498 329.369C58.5015 328.681 59.311 327.949 60.6894 327.152C62.0679 326.355 63.3916 325.842 64.5294 325.7C65.6671 325.558 66.6846 325.744 67.6035 326.279C68.5225 326.814 68.8179 327.392 68.5553 328.08L68.5662 328.069ZM62.1773 330.985C62.9978 330.821 64.0043 330.417 65.1749 329.729C66.3454 329.041 67.0675 328.463 67.341 327.993C67.5926 327.513 67.4175 327.098 66.8049 326.737C66.1923 326.377 65.4812 326.279 64.6497 326.431C63.8292 326.584 62.8227 326.999 61.6412 327.687C60.4597 328.375 59.7267 328.954 59.4642 329.434C59.2126 329.915 59.3766 330.319 60.0002 330.679C60.6238 331.04 61.3458 331.138 62.1773 330.974" fill="#432626"/>
</g>
<path d="M362.95 298.689V301.604C362.939 302.74 362.184 303.887 360.686 304.76L216.759 388.244C213.739 389.991 208.849 390.002 205.808 388.244L-30.2116 252.224C-31.7322 251.351 -32.498 250.193 -32.498 249.046V246.12C-32.4871 247.277 -31.7322 248.424 -30.2116 249.309L205.808 385.328C208.849 387.075 213.75 387.075 216.77 385.317L360.697 301.834C362.195 300.96 362.95 299.824 362.95 298.689Z" fill="url(#paint3_linear_1_2269)"/>
<g style="mix-blend-mode:soft-light">
<path d="M360.673 295.5C363.703 297.247 363.714 300.087 360.705 301.834L216.768 385.328C213.748 387.075 208.847 387.086 205.817 385.328L-30.2136 249.309C-33.244 247.561 -33.2549 244.722 -30.2464 242.975L113.691 159.481C116.711 157.733 121.612 157.733 124.642 159.481L360.662 295.5H360.673Z" fill="url(#paint4_linear_1_2269)"/>
</g>
<path d="M134.874 177.935L128.584 181.582L119.689 176.45L123.529 174.222C124.875 173.447 127.074 173.436 128.431 174.222L134.874 177.935Z" fill="url(#paint5_linear_1_2269)"/>
<path d="M126.395 181.768H110.521L118.431 177.182L126.395 181.768Z" fill="url(#paint6_linear_1_2269)"/>
<path d="M126.472 182.806L111.199 191.662L102.305 186.54L108.76 182.795L126.472 182.806Z" fill="url(#paint7_linear_1_2269)"/>
<path d="M155.485 189.816L149.195 193.464L129.842 182.314L136.132 178.667L155.485 189.816Z" fill="url(#paint8_linear_1_2269)"/>
<path d="M109.942 192.404L103.662 196.052L97.2186 192.339C95.8621 191.564 95.8511 190.297 97.1967 189.511L101.048 187.272L109.942 192.404Z" fill="url(#paint9_linear_1_2269)"/>
<path d="M137.642 188.255L121.516 197.602L112.469 192.393L128.594 183.046L137.642 188.255Z" fill="url(#paint10_linear_1_2269)"/>
<path d="M163.186 194.261C164.542 195.036 164.542 196.314 163.186 197.089L159.346 199.317L150.452 194.195L156.742 190.548L163.175 194.261H163.186Z" fill="url(#paint11_linear_1_2269)"/>
<path d="M147.947 194.195L131.821 203.543L122.785 198.334L138.91 188.986L147.947 194.195Z" fill="url(#paint12_linear_1_2269)"/>
<path d="M158.1 200.048L151.722 203.75H134.01L149.216 194.927L158.1 200.048Z" fill="url(#paint13_linear_1_2269)"/>
<path d="M130.552 204.274L124.273 207.922L104.931 196.772L111.21 193.125L130.552 204.274Z" fill="url(#paint14_linear_1_2269)"/>
<path d="M149.949 204.777L141.974 209.407L133.944 204.777H149.949Z" fill="url(#paint15_linear_1_2269)"/>
<path d="M140.716 210.138L136.865 212.377C135.519 213.152 133.331 213.152 131.985 212.377L125.553 208.664L131.832 205.017L140.727 210.138H140.716Z" fill="url(#paint16_linear_1_2269)"/>
<path d="M169.99 325.639L162.551 334.692L159.903 333.163L161.796 331.088L157.584 328.664L154.007 329.767L151.37 328.249L166.992 323.914L169.99 325.639ZM160.253 327.845L163.262 329.581C164.958 327.692 165.931 326.633 166.161 326.382C166.38 326.142 166.566 325.945 166.719 325.814C165.877 326.098 163.721 326.775 160.253 327.845Z" fill="url(#paint17_linear_1_2269)"/>
<path d="M155.133 324.515C155.013 324.962 154.586 325.399 153.842 325.825C152.792 326.436 151.589 326.688 150.243 326.589C148.897 326.491 147.563 326.065 146.261 325.312L141.929 322.822L153.416 316.161L157.015 318.236C158.656 319.186 159.608 320.005 159.881 320.703C160.155 321.402 159.794 322.047 158.787 322.625C158.109 323.018 157.376 323.248 156.61 323.324C155.844 323.39 155.144 323.302 154.521 323.04L154.444 323.084C155.013 323.608 155.232 324.089 155.111 324.525L155.133 324.515ZM149.882 324.624C150.462 324.656 151.009 324.525 151.545 324.22C152.497 323.674 152.289 322.997 150.921 322.21L149.401 321.337L146.403 323.073L148 323.99C148.679 324.383 149.302 324.591 149.882 324.635M153.875 318.738L151.326 320.223L152.748 321.042C153.416 321.424 153.996 321.643 154.499 321.697C155.002 321.752 155.494 321.643 155.965 321.37C156.402 321.118 156.545 320.834 156.413 320.54C156.282 320.245 155.866 319.884 155.166 319.491L153.875 318.749" fill="url(#paint18_linear_1_2269)"/>
<g opacity="0.7">
<path d="M274.303 261.91L272.892 262.729L269.905 261.015L268.122 262.052L270.89 263.646L269.479 264.465L266.711 262.871L264.61 264.083L267.597 265.798L266.164 266.628L261.449 263.908L269.588 259.191L274.303 261.91Z" fill="#432626"/>
<path d="M261.559 259.868C260.957 261.637 260.585 262.784 260.421 263.319L258.496 262.205L259.655 259.268L258.726 258.732L255.608 260.545L253.868 259.541L262.008 254.823L264.392 256.199C265.508 256.843 266.132 257.433 266.263 257.968C266.394 258.514 266.044 259.016 265.235 259.497C264.753 259.77 264.196 259.956 263.55 260.01C262.916 260.076 262.248 260.021 261.548 259.868H261.559ZM262.183 258.776C262.631 258.82 263.047 258.732 263.441 258.503C263.835 258.274 263.966 258.045 263.856 257.793C263.758 257.542 263.419 257.258 262.861 256.942L262.336 256.636L260.137 257.913L260.706 258.241C261.253 258.558 261.745 258.732 262.183 258.776Z" fill="#432626"/>
<path d="M258.298 252.552C259.097 253.01 259.709 253.578 260.114 254.266L258.156 254.757C257.992 254.495 257.806 254.255 257.609 254.004C257.412 253.764 257.16 253.556 256.854 253.392C256.197 253.01 255.454 252.868 254.6 252.934C253.747 253.01 252.894 253.305 252.018 253.807C250.202 254.856 249.984 255.784 251.351 256.57C251.92 256.898 252.762 257.225 253.867 257.531L252.423 258.372C251.471 258.143 250.585 257.793 249.754 257.324C248.561 256.636 248.003 255.904 248.091 255.129C248.189 254.353 248.901 253.567 250.235 252.792C251.089 252.3 251.986 251.962 252.926 251.765C253.878 251.58 254.808 251.547 255.727 251.689C256.646 251.831 257.499 252.126 258.276 252.573L258.298 252.552Z" fill="#432626"/>
<path d="M86.3104 209.997C85.9385 211.001 84.7569 212.082 82.744 213.251C80.731 214.419 78.7946 215.162 77.1208 215.369C75.4361 215.588 73.9154 215.304 72.5698 214.517C71.2242 213.731 70.7975 212.901 71.1695 211.897C71.5414 210.892 72.7448 209.811 74.7578 208.632C76.7707 207.452 78.729 206.71 80.4028 206.502C82.0657 206.295 83.5754 206.568 84.921 207.343C86.2667 208.118 86.6933 208.981 86.3104 209.986V209.997ZM76.9349 214.288C78.1492 214.048 79.6152 213.436 81.3437 212.443C83.0722 211.449 84.1224 210.597 84.5272 209.887C84.9101 209.188 84.6476 208.566 83.7395 208.042C82.8315 207.518 81.7813 207.376 80.5779 207.594C79.3745 207.813 77.8976 208.435 76.1581 209.44C74.4186 210.444 73.3465 211.307 72.9636 212.006C72.5807 212.705 72.8433 213.316 73.7404 213.829C74.6375 214.343 75.7205 214.507 76.9349 214.277" fill="#432626"/>
<path d="M109.537 221.768L97.5354 228.724L96.2007 227.949L104.756 222.991C105.467 222.576 106.156 222.205 106.845 221.856C106.616 221.856 106.364 221.856 106.09 221.845C105.828 221.834 104.635 221.768 102.535 221.637L102.743 220.676L108.388 221.091L109.547 221.757L109.537 221.768Z" fill="#432626"/>
<path d="M86.7805 229.674L83.4985 231.574L53.9824 214.572L57.2644 212.672L86.7805 229.674Z" fill="#432626"/>
<path d="M98.1805 216.832C97.8086 217.837 96.6161 218.918 94.6141 220.076C92.6121 221.233 90.6647 221.987 88.9909 222.194C87.3062 222.412 85.7855 222.129 84.4399 221.342C83.0943 220.556 82.6676 219.726 83.0396 218.721C83.4115 217.728 84.6259 216.636 86.6388 215.467C88.6518 214.299 90.5991 213.545 92.2729 213.327C93.9358 213.119 95.4565 213.403 96.7912 214.168C98.1258 214.932 98.5634 215.806 98.1915 216.81L98.1805 216.832ZM88.794 221.124C90.0193 220.895 91.4852 220.283 93.2138 219.278C94.9423 218.274 95.9925 217.433 96.3864 216.723C96.7693 216.024 96.5177 215.413 95.5987 214.878C94.6797 214.343 93.6404 214.212 92.437 214.43C91.2336 214.648 89.7567 215.271 88.0173 216.275C86.2778 217.28 85.2057 218.143 84.8228 218.842C84.4399 219.54 84.7025 220.152 85.5995 220.665C86.4966 221.178 87.5797 221.342 88.794 221.113" fill="#432626"/>
<path d="M128.002 232.404L116.001 239.36L114.667 238.585L123.222 233.627C123.933 233.212 124.622 232.841 125.311 232.492C125.07 232.492 124.83 232.492 124.556 232.481C124.294 232.47 123.09 232.404 121.001 232.273L121.209 231.312L126.854 231.727L128.013 232.393L128.002 232.404Z" fill="#432626"/>
<path d="M138.746 238.41C139.873 239.065 140.485 239.742 140.551 240.452C140.617 241.162 140.157 241.795 139.194 242.352C138.44 242.789 137.466 243.106 136.295 243.291C135.125 243.477 133.374 243.564 131.066 243.543L125.859 243.51L125.793 243.543L131.996 247.124L130.727 247.856L122.795 243.281L123.977 242.593H130.333C132.28 242.582 133.604 242.549 134.337 242.483C135.059 242.418 135.694 242.32 136.241 242.178C136.799 242.036 137.302 241.839 137.75 241.577C138.385 241.206 138.702 240.802 138.68 240.354C138.658 239.917 138.308 239.491 137.619 239.087C137.127 238.803 136.558 238.574 135.956 238.41C135.333 238.246 134.545 238.137 133.56 238.072L133.757 237.111C135.781 237.22 137.455 237.657 138.768 238.41H138.746Z" fill="#432626"/>
<path d="M236.211 297.411C235.729 298.066 234.964 298.711 233.87 299.344C229.165 302.074 224.997 302.38 221.343 300.272C220.698 299.901 220.249 299.584 219.987 299.3L221.168 298.612C221.464 298.951 221.901 299.278 222.459 299.595C223.783 300.359 225.183 300.698 226.671 300.622C228.159 300.545 229.767 300.032 231.507 299.093L231.408 299.038C230.653 299.126 229.909 299.093 229.165 298.951C228.422 298.798 227.743 298.536 227.109 298.175C226.037 297.564 225.512 296.887 225.522 296.155C225.522 295.424 226.102 294.736 227.24 294.07C228.487 293.349 229.822 292.978 231.255 292.967C232.677 292.956 233.957 293.283 235.106 293.939C235.926 294.419 236.441 294.943 236.637 295.544C236.834 296.133 236.692 296.767 236.222 297.422L236.211 297.411ZM231.988 298.416C232.579 298.35 233.071 298.208 233.454 297.979C234.034 297.64 234.449 297.28 234.712 296.865C234.975 296.45 235.04 296.046 234.909 295.653C234.789 295.26 234.46 294.91 233.935 294.605C233.148 294.146 232.294 293.949 231.364 293.993C230.424 294.037 229.505 294.321 228.608 294.834C227.82 295.293 227.404 295.762 227.338 296.254C227.284 296.745 227.667 297.225 228.476 297.695C228.969 297.979 229.537 298.197 230.161 298.317C230.785 298.438 231.386 298.47 231.988 298.405" fill="#432626"/>
<path d="M212.831 289.527C212.733 290.062 212.35 290.521 211.683 290.914C210.676 291.492 209.539 291.755 208.248 291.689C206.957 291.634 205.709 291.252 204.484 290.553C203.204 289.811 202.482 289.079 202.351 288.358C202.22 287.627 202.668 286.972 203.686 286.371C205.064 285.574 206.979 285.443 209.429 285.967C209.101 285.279 209.002 284.7 209.177 284.22C209.342 283.739 209.724 283.324 210.337 282.975C211.212 282.473 212.23 282.254 213.389 282.331C214.56 282.407 215.676 282.756 216.759 283.379C217.842 284.001 218.476 284.657 218.619 285.323C218.761 285.989 218.378 286.589 217.481 287.103C216.89 287.441 216.168 287.649 215.304 287.714C214.451 287.78 213.422 287.703 212.208 287.463C212.722 288.293 212.941 288.981 212.831 289.516V289.527ZM208.04 290.663C208.882 290.706 209.637 290.521 210.293 290.138C210.829 289.833 211.081 289.429 211.07 288.948C211.048 288.468 210.709 287.801 210.02 286.961C208.849 286.688 207.865 286.568 207.077 286.611C206.289 286.644 205.6 286.83 205.009 287.179C204.353 287.561 204.068 287.987 204.167 288.468C204.254 288.948 204.714 289.429 205.545 289.909C206.377 290.39 207.208 290.641 208.04 290.684M210.808 284.831C210.775 285.224 211.015 285.781 211.53 286.502C212.645 286.764 213.553 286.884 214.254 286.851C214.965 286.819 215.566 286.666 216.07 286.371C216.628 286.054 216.857 285.683 216.781 285.257C216.715 284.842 216.321 284.427 215.632 284.023C214.943 283.619 214.232 283.412 213.521 283.379C212.799 283.346 212.164 283.488 211.617 283.805C211.114 284.1 210.851 284.449 210.808 284.842" fill="#432626"/>
<path d="M208.707 278.923L207.613 279.557L191.772 283.029L190.251 282.156L205.994 278.814L199.419 275.014L200.677 274.282L208.707 278.923Z" fill="#432626"/>
<path d="M190.449 274.752C190.416 275.484 189.847 276.183 188.731 276.827C187.484 277.548 186.149 277.919 184.771 277.941C183.37 277.963 182.09 277.635 180.92 276.958C179.673 276.237 179.148 275.396 179.344 274.436C179.541 273.475 180.471 272.514 182.134 271.542C184.497 270.177 186.729 269.423 188.808 269.27C190.897 269.128 192.844 269.576 194.65 270.614C195.273 270.974 195.711 271.28 195.962 271.553L194.781 272.241C194.496 271.924 194.081 271.596 193.534 271.28C192.243 270.537 190.853 270.188 189.366 270.264C187.889 270.33 186.248 270.854 184.464 271.804L184.563 271.858C186.105 271.662 187.539 271.946 188.84 272.699C189.923 273.322 190.46 273.999 190.438 274.741L190.449 274.752ZM184.607 276.903C185.526 276.871 186.445 276.587 187.374 276.052C188.162 275.593 188.589 275.113 188.643 274.621C188.698 274.13 188.326 273.649 187.528 273.191C187.035 272.907 186.466 272.699 185.854 272.579C185.241 272.459 184.628 272.426 184.027 272.492C183.425 272.557 182.933 272.699 182.55 272.929C181.992 273.256 181.565 273.627 181.303 274.032C181.04 274.446 180.975 274.84 181.084 275.244C181.204 275.637 181.522 275.986 182.047 276.292C182.823 276.74 183.677 276.958 184.607 276.914" fill="#432626"/>
<path d="M184.015 264.684L182.757 265.415L177.922 262.631L174.016 264.542C174.782 264.837 175.471 265.153 176.095 265.525C177.375 266.256 178.064 267.021 178.162 267.807C178.261 268.582 177.779 269.292 176.685 269.925C175.438 270.646 174.071 270.985 172.572 270.93C171.073 270.875 169.629 270.45 168.229 269.652C166.828 268.855 166.041 268.145 165.756 267.479L167.069 266.715C167.211 267.086 167.496 267.468 167.933 267.883C168.36 268.298 168.863 268.659 169.421 268.986C170.384 269.543 171.369 269.849 172.364 269.893C173.349 269.936 174.279 269.718 175.143 269.216C176.817 268.244 176.62 267.163 174.552 265.972C174.027 265.677 173.25 265.317 172.211 264.902L171.959 264.225L178.031 261.233L184.037 264.695L184.015 264.684Z" fill="#432626"/>
<path d="M157.234 258.514L159.028 259.551L157.792 260.272L155.998 259.235L153.241 260.829L151.939 260.076L154.696 258.481L148.821 255.096L150.014 254.408L163.864 253.01L165.319 253.851L157.256 258.525L157.234 258.514ZM159.914 255.446C160.702 254.987 161.61 254.485 162.639 253.949L162.573 253.917C161.785 254.07 161.107 254.179 160.527 254.233L151.414 255.162L155.921 257.761L159.904 255.446" fill="#432626"/>
<path d="M150.604 245.235C151.786 245.912 152.42 246.589 152.541 247.277C152.661 247.965 152.245 248.577 151.315 249.112C150.55 249.559 149.707 249.8 148.799 249.832C147.88 249.865 146.939 249.701 145.977 249.341L145.911 249.385C146.764 250.007 147.18 250.608 147.147 251.165C147.125 251.711 146.721 252.224 145.911 252.694C144.773 253.36 143.493 253.633 142.071 253.534C140.66 253.436 139.216 252.956 137.75 252.104C137.115 251.743 136.568 251.372 136.131 251.012C135.693 250.651 135.354 250.258 135.091 249.822L136.393 249.068C136.656 249.516 137.017 249.953 137.476 250.378C137.936 250.793 138.428 251.154 138.964 251.46C141.054 252.661 142.902 252.792 144.533 251.853C145.988 251.012 145.561 249.931 143.263 248.599L142.071 247.911L143.253 247.223L144.456 247.921C145.397 248.467 146.338 248.773 147.3 248.85C148.263 248.926 149.116 248.762 149.86 248.326C150.44 247.987 150.692 247.605 150.626 247.179C150.56 246.753 150.167 246.338 149.488 245.945C148.952 245.639 148.383 245.388 147.782 245.202C147.169 245.017 146.381 244.864 145.386 244.733L145.616 243.805C146.491 243.859 147.366 244.012 148.252 244.263C149.116 244.504 149.904 244.842 150.615 245.246L150.604 245.235Z" fill="#432626"/>
<path d="M248.004 301.561L236.003 308.517L234.668 307.741L243.223 302.784C243.934 302.369 244.623 301.986 245.302 301.648C245.072 301.648 244.82 301.648 244.547 301.637C244.284 301.637 243.092 301.561 240.991 301.429L241.199 300.469L246.844 300.883L248.004 301.55V301.561Z" fill="#432626"/>
<path d="M271.743 315.243L259.742 322.199L258.407 321.424L266.962 316.466C267.673 316.051 268.363 315.669 269.041 315.331C268.811 315.331 268.56 315.331 268.286 315.32C268.023 315.32 266.831 315.243 264.731 315.112L264.938 314.151L270.583 314.566L271.743 315.232V315.243Z" fill="#432626"/>
<path d="M260.376 310.308C260.004 311.312 258.823 312.393 256.81 313.562C254.797 314.73 252.85 315.473 251.176 315.68C249.491 315.899 247.981 315.615 246.625 314.839C245.268 314.064 244.853 313.223 245.225 312.219C245.596 311.214 246.8 310.133 248.813 308.954C250.826 307.774 252.784 307.032 254.447 306.813C256.11 306.606 257.63 306.89 258.976 307.665C260.322 308.44 260.748 309.303 260.365 310.308H260.376ZM250.99 314.599C252.215 314.37 253.681 313.758 255.41 312.754C257.138 311.749 258.188 310.908 258.582 310.198C258.976 309.5 258.714 308.888 257.806 308.364C256.897 307.84 255.847 307.687 254.644 307.905C253.44 308.124 251.964 308.746 250.224 309.751C248.485 310.755 247.413 311.618 247.03 312.317C246.647 313.016 246.909 313.627 247.817 314.151C248.725 314.676 249.797 314.828 251.001 314.588" fill="#432626"/>
<path d="M35.6911 229.172L29.2693 232.896L28.23 232.295L32.3653 229.893C32.8576 229.609 33.2624 229.379 33.5687 229.226C33.4374 229.226 33.2843 229.226 33.0983 229.226C32.9123 229.226 32.3106 229.183 31.2932 229.128L31.4245 228.451L34.8049 228.68L35.6801 229.183L35.6911 229.172Z" fill="#432626"/>
<path d="M14.3258 241.752C14.9822 242.134 15.4635 242.56 15.7479 243.04L14.4899 243.324C14.3695 243.139 14.2382 242.964 14.0632 242.778C13.8991 242.593 13.6912 242.418 13.4177 242.265C12.8051 241.916 12.1159 241.763 11.3391 241.817C10.5624 241.861 9.79659 242.101 9.04173 242.538C8.28687 242.975 7.82739 243.433 7.76175 243.859C7.69611 244.285 7.96961 244.678 8.60413 245.05C8.87763 245.213 9.17301 245.344 9.47933 245.465C9.78565 245.574 10.1248 245.694 10.4858 245.803L9.57779 246.327C8.88857 246.142 8.22123 245.869 7.57577 245.497C6.62399 244.951 6.18638 244.373 6.25202 243.75C6.31766 243.128 6.8756 242.516 7.93679 241.905C8.60413 241.512 9.31523 241.249 10.0591 241.097C10.8031 240.944 11.547 240.933 12.28 241.053C13.002 241.162 13.6912 241.402 14.3148 241.763L14.3258 241.752Z" fill="#432626"/>
<path d="M21.1297 245.738L17.1038 250.87L15.977 250.226L17.1147 248.817L14.6423 247.397L12.2246 248.064L11.1196 247.419L19.981 245.071L21.1297 245.738ZM15.8676 247.037L17.7493 248.118L18.887 246.753C18.9527 246.666 19.073 246.524 19.248 246.327C19.434 246.131 19.5544 246 19.6419 245.912C19.2043 246.076 18.6901 246.229 18.1103 246.393L15.8567 247.026" fill="#432626"/>
<path d="M24.9908 252.126L23.9734 254.823L22.77 254.135L23.7765 251.755L22.7371 251.154L20.1772 252.639L19.127 252.028L25.5487 248.304L27.3757 249.352C28.2072 249.833 28.6666 250.28 28.7651 250.684C28.8526 251.099 28.5791 251.482 27.9555 251.842C27.146 252.311 26.1723 252.388 24.9908 252.115V252.126ZM25.691 251.536C26.0957 251.558 26.4677 251.471 26.8287 251.263C27.1897 251.056 27.332 250.826 27.2554 250.597C27.1788 250.368 26.8943 250.117 26.413 249.844L25.7128 249.44L23.6124 250.652L24.3453 251.078C24.8376 251.361 25.2862 251.514 25.691 251.536Z" fill="#432626"/>
<path d="M36.0735 255.336C36.0953 255.98 35.603 256.592 34.6184 257.171C33.5573 257.782 32.4414 258.088 31.3036 258.066C30.144 258.044 29.0172 257.728 27.9013 257.083L26.0962 256.046L32.518 252.322L34.509 253.469C35.5374 254.059 36.0625 254.681 36.0844 255.336H36.0735ZM28.7765 256.57C30.3409 257.466 31.8944 257.455 33.4588 256.548C35.0232 255.642 35.0451 254.801 33.601 253.971L32.6821 253.447L28.0216 256.144L28.7655 256.581" fill="#432626"/>
<path d="M50.033 250.99L46.751 252.89L17.2349 235.888L20.5278 233.977L50.033 250.99Z" fill="#432626"/>
<path d="M60.2078 243.302L59.2889 243.837L56.8383 242.429L55.1098 243.27C55.2301 243.324 55.3724 243.379 55.5474 243.455C55.7115 243.521 55.9084 243.63 56.1163 243.75C56.7617 244.121 57.1228 244.525 57.1556 244.94C57.1993 245.355 56.9149 245.738 56.3351 246.076C55.6459 246.48 54.891 246.655 54.0705 246.633C53.2609 246.611 52.4404 246.36 51.6527 245.901C50.9307 245.486 50.4931 245.093 50.3071 244.722L51.237 244.176C51.3355 244.394 51.5105 244.613 51.7403 244.831C51.9809 245.061 52.2326 245.235 52.4951 245.388C52.9655 245.661 53.425 245.803 53.8736 245.825C54.3221 245.847 54.7488 245.738 55.1536 245.508C55.9194 245.061 55.8099 244.558 54.8253 243.99C54.6831 243.914 54.4971 243.816 54.2783 243.717C54.0377 243.619 53.8407 243.532 53.6438 243.466L53.4469 243.04L56.8383 241.37L60.1969 243.302H60.2078Z" fill="#432626"/>
<path d="M52.266 238.618C52.8677 238.967 53.1959 239.339 53.2397 239.721C53.2944 240.114 53.0537 240.452 52.5286 240.758C52.2442 240.922 51.916 241.064 51.544 241.151C51.183 241.239 50.7454 241.304 50.2531 241.337C49.7608 241.37 49.0278 241.381 48.0541 241.37L45.8552 241.348L45.8224 241.37L48.8856 243.139L47.9776 243.663L43.6016 241.14L44.3892 240.682H47.715C48.7105 240.682 49.3888 240.66 49.7608 240.627C50.1218 240.605 50.4391 240.551 50.7016 240.485C50.9642 240.42 51.1939 240.332 51.4127 240.212C51.6972 240.048 51.8394 239.863 51.8284 239.666C51.8284 239.47 51.6643 239.284 51.358 239.098C51.1173 238.956 50.822 238.847 50.5047 238.76C50.1874 238.683 49.7498 238.618 49.2028 238.585L49.3232 237.864C49.9796 237.897 50.5485 237.974 51.0079 238.094C51.4674 238.214 51.8941 238.388 52.277 238.607L52.266 238.618Z" fill="#432626"/>
<path d="M48.3711 236.477L39.5425 238.814L38.5688 238.257L47.3974 235.92L48.3711 236.477Z" fill="#432626"/>
<path d="M41.2272 232.262C41.8289 232.612 42.1571 232.983 42.2008 233.365C42.2446 233.758 42.0149 234.097 41.4897 234.403C41.2053 234.566 40.8662 234.697 40.5051 234.796C40.1441 234.883 39.7065 234.949 39.2142 234.981C38.7219 235.014 37.978 235.025 37.0043 235.003L34.8054 234.981L34.7726 235.003L37.8358 236.772L36.9278 237.296L32.5518 234.774L33.3394 234.315H36.6652C37.6607 234.304 38.339 234.293 38.711 234.261C39.072 234.239 39.3893 234.184 39.6518 234.119C39.9034 234.053 40.1441 233.955 40.352 233.835C40.6364 233.671 40.7896 233.485 40.7786 233.289C40.7786 233.092 40.6036 232.896 40.3082 232.721C40.0566 232.579 39.7722 232.47 39.4549 232.382C39.1376 232.306 38.7 232.24 38.153 232.208L38.2734 231.487C38.9298 231.52 39.4877 231.596 39.9472 231.716C40.4176 231.847 40.8443 232.011 41.2272 232.23V232.262Z" fill="#432626"/>
<path d="M66.2234 272.71C66.2452 273.354 65.753 273.966 64.7684 274.544C63.7072 275.156 62.5913 275.462 61.4535 275.44C60.3048 275.429 59.1671 275.101 58.0512 274.457L56.2461 273.42L62.6679 269.696L64.659 270.843C65.6873 271.432 66.2124 272.055 66.2343 272.71H66.2234ZM58.9264 273.944C60.4908 274.839 62.0443 274.828 63.6087 273.922C65.1731 273.016 65.195 272.175 63.7509 271.345L62.832 270.821L58.1715 273.518L58.9155 273.955" fill="#432626"/>
<path d="M57.6358 266.802L52.122 270.002L54.857 271.585L53.949 272.109L50.1528 269.925L56.5746 266.202L57.6358 266.802Z" fill="#432626"/>
<path d="M52.4619 264.717C52.4072 265.361 51.8711 265.972 50.8209 266.584C49.7707 267.195 48.6985 267.512 47.5936 267.545C46.4887 267.578 45.4603 267.316 44.4976 266.759C43.5349 266.202 43.0535 265.601 43.1082 264.968C43.1629 264.334 43.7208 263.712 44.782 263.1C45.8432 262.489 46.9153 262.161 48.0093 262.139C49.1033 262.107 50.1317 262.38 51.1053 262.937C52.079 263.494 52.5166 264.083 52.4619 264.717ZM47.4186 266.704C48.1297 266.649 48.8955 266.398 49.705 265.929C50.5146 265.459 50.9303 265.033 51.0178 264.618C51.1163 264.203 50.8428 263.81 50.2192 263.45C49.5956 263.09 48.9064 262.926 48.1734 262.98C47.4404 263.024 46.6856 263.275 45.8979 263.734C45.1102 264.192 44.6726 264.629 44.5742 265.055C44.4866 265.481 44.7492 265.874 45.3837 266.234C46.0182 266.595 46.6856 266.748 47.4186 266.704Z" fill="#432626"/>
<path d="M45.4058 259.759L38.9841 263.483L37.9229 262.871L40.822 261.19L37.8463 259.475L34.9582 261.157L33.897 260.556L40.3188 256.832L41.369 257.433L38.7434 258.962L41.7191 260.676L44.3447 259.147L45.4058 259.759Z" fill="#432626"/>
<path d="M115.761 300.305L114.875 300.829L112.282 299.322L110.532 300.338L112.971 301.746L112.096 302.249L109.657 300.851L107.633 302.019L110.236 303.515L109.35 304.029L105.696 301.921L112.107 298.208L115.761 300.305Z" fill="#432626"/>
<path d="M109.241 296.548L102.82 300.272L101.802 299.682L104.975 297.837C105.292 297.651 105.719 297.411 106.244 297.127C106.769 296.843 107.097 296.669 107.217 296.614L107.185 296.592L99.8986 298.58L98.9687 298.044L102.459 293.851L102.426 293.829C101.682 294.321 100.96 294.768 100.26 295.172L97.1417 296.985L96.1899 296.439L102.612 292.715L104.1 293.567L100.796 297.564H100.818L107.775 295.686L109.263 296.548H109.241Z" fill="#432626"/>
<path d="M98.1696 290.138L94.1437 295.271L93.0278 294.626L94.1655 293.218L91.6931 291.798L89.2863 292.475L88.1704 291.831L97.0318 289.483L98.1805 290.149L98.1696 290.138ZM92.9074 291.449L94.7891 292.53L95.9269 291.165C95.9925 291.077 96.1129 290.936 96.2879 290.739C96.4739 290.542 96.5942 290.411 96.6817 290.324C96.2441 290.488 95.73 290.641 95.1501 290.804L92.8965 291.438" fill="#432626"/>
<path d="M92.5565 286.928L86.1347 290.652L84.8438 289.909L86.7802 285.115L86.7474 285.093L86.4848 285.268C85.9816 285.607 85.5002 285.912 85.0626 286.174L81.7259 288.107L80.7632 287.55L87.185 283.827L88.4649 284.569L86.5395 289.341H86.5614C86.627 289.319 86.8568 289.166 87.2725 288.904C87.6773 288.653 87.9945 288.446 88.2243 288.315L91.5938 286.36L92.5674 286.917L92.5565 286.928Z" fill="#432626"/>
<path d="M76.1373 281.61L75.1199 284.307L73.9165 283.619L74.9339 281.249L73.8836 280.649L71.3237 282.134L70.2734 281.522L76.6952 277.799L78.5222 278.847C79.3536 279.327 79.8131 279.775 79.9116 280.179C79.9991 280.594 79.7256 280.976 79.102 281.337C78.2925 281.806 77.3188 281.894 76.1373 281.61ZM76.8374 281.02C77.2422 281.042 77.6142 280.955 77.9752 280.747C78.3362 280.54 78.4784 280.321 78.4019 280.092C78.3143 279.863 78.0299 279.611 77.5595 279.338L76.8593 278.934L74.7588 280.146L75.4918 280.572C75.9841 280.856 76.4327 281.009 76.8374 281.031" fill="#432626"/>
<path d="M74.1231 276.314L73.237 276.827L70.6332 275.331L68.8829 276.347L71.3225 277.744L70.4582 278.258L68.0186 276.849L65.9947 278.017L68.5984 279.513L67.7013 280.037L64.0474 277.93L70.4691 274.206L74.1231 276.314Z" fill="#432626"/>
</g>
<path d="M263.964 239.764L295.1 257.378L326.18 275.091L357.217 292.879L361.101 295.118C361.779 295.533 362.435 296.057 362.906 296.778C363.376 297.488 363.65 298.438 363.431 299.322C363.048 301.146 361.374 302.118 360.149 302.795L356.287 305.044L340.829 314.042L278.876 349.827L247.85 367.627L216.758 385.328L247.554 367.124L278.416 349.03L340.227 313.016L355.707 304.061L359.58 301.823C360.236 301.441 360.86 301.113 361.352 300.665C361.845 300.228 362.217 299.682 362.337 299.104C362.61 297.924 361.691 296.745 360.521 296.068L356.67 293.829L325.721 275.899L294.815 257.892L263.964 239.775V239.764Z" fill="#432626"/>
<g style="mix-blend-mode:overlay" filter="url(#filter0_f_1_2269)">
<circle cx="256.999" cy="46.052" r="57.9364" fill="white"/>
</g>
</g>
<defs>
<filter id="filter0_f_1_2269" x="76.0595" y="-134.888" width="361.88" height="361.88" filterUnits="userSpaceOnUse" color-interpolation-filters="sRGB">
<feFlood flood-opacity="0" result="BackgroundImageFix"/>
<feBlend mode="normal" in="SourceGraphic" in2="BackgroundImageFix" result="shape"/>
<feGaussianBlur stdDeviation="61.5017" result="effect1_foregroundBlur_1_2269"/>
</filter>
<linearGradient id="paint0_linear_1_2269" x1="264" y1="271.667" x2="-0.736564" y2="250.816" gradientUnits="userSpaceOnUse">
<stop stop-color="#E3A255"/>
<stop offset="1" stop-color="#F19D3A"/>
</linearGradient>
<linearGradient id="paint1_linear_1_2269" x1="13.101" y1="342.822" x2="408.549" y2="342.822" gradientUnits="userSpaceOnUse">
<stop stop-color="white" stop-opacity="0.4"/>
<stop offset="0.19" stop-color="white" stop-opacity="0.41"/>
<stop offset="0.35" stop-color="white" stop-opacity="0.46"/>
<stop offset="0.5" stop-color="white" stop-opacity="0.53"/>
<stop offset="0.65" stop-color="white" stop-opacity="0.62"/>
<stop offset="0.79" stop-color="white" stop-opacity="0.75"/>
<stop offset="0.93" stop-color="white" stop-opacity="0.91"/>
<stop offset="1" stop-color="white"/>
</linearGradient>
<linearGradient id="paint2_linear_1_2269" x1="13.0995" y1="388.249" x2="408.548" y2="388.249" gradientUnits="userSpaceOnUse">
<stop stop-color="white"/>
<stop offset="1" stop-color="white" stop-opacity="0.4"/>
</linearGradient>
<linearGradient id="paint3_linear_1_2269" x1="-32.498" y1="317.842" x2="362.95" y2="317.842" gradientUnits="userSpaceOnUse">
<stop stop-color="white"/>
<stop offset="1" stop-color="white" stop-opacity="0.4"/>
</linearGradient>
<linearGradient id="paint4_linear_1_2269" x1="-32.4891" y1="272.404" x2="362.948" y2="272.404" gradientUnits="userSpaceOnUse">
<stop stop-color="white" stop-opacity="0.4"/>
<stop offset="0.19" stop-color="white" stop-opacity="0.41"/>
<stop offset="0.35" stop-color="white" stop-opacity="0.46"/>
<stop offset="0.5" stop-color="white" stop-opacity="0.53"/>
<stop offset="0.65" stop-color="white" stop-opacity="0.62"/>
<stop offset="0.79" stop-color="white" stop-opacity="0.75"/>
<stop offset="0.93" stop-color="white" stop-opacity="0.91"/>
<stop offset="1" stop-color="white"/>
</linearGradient>
<linearGradient id="paint5_linear_1_2269" x1="116.954" y1="195.058" x2="130.974" y2="170.717" gradientUnits="userSpaceOnUse">
<stop stop-color="#D7A866"/>
<stop offset="1" stop-color="#E7B19E"/>
</linearGradient>
<linearGradient id="paint6_linear_1_2269" x1="111.604" y1="193.627" x2="126.125" y2="168.423" gradientUnits="userSpaceOnUse">
<stop stop-color="#D7A866"/>
<stop offset="1" stop-color="#E7B19E"/>
</linearGradient>
<linearGradient id="paint7_linear_1_2269" x1="109.405" y1="193.289" x2="124.494" y2="167.111" gradientUnits="userSpaceOnUse">
<stop stop-color="#D7A866"/>
<stop offset="1" stop-color="#E7B19E"/>
</linearGradient>
<linearGradient id="paint8_linear_1_2269" x1="133.036" y1="202.713" x2="145.343" y2="181.367" gradientUnits="userSpaceOnUse">
<stop stop-color="#D7A866"/>
<stop offset="1" stop-color="#E7B19E"/>
</linearGradient>
<linearGradient id="paint9_linear_1_2269" x1="103.476" y1="190.799" x2="117.954" y2="165.671" gradientUnits="userSpaceOnUse">
<stop stop-color="#D7A866"/>
<stop offset="1" stop-color="#E7B19E"/>
</linearGradient>
<linearGradient id="paint10_linear_1_2269" x1="119.394" y1="200.114" x2="134.504" y2="173.893" gradientUnits="userSpaceOnUse">
<stop stop-color="#D7A866"/>
<stop offset="1" stop-color="#E7B19E"/>
</linearGradient>
<linearGradient id="paint11_linear_1_2269" x1="145.627" y1="215.336" x2="160.116" y2="190.208" gradientUnits="userSpaceOnUse">
<stop stop-color="#D7A866"/>
<stop offset="1" stop-color="#E7B19E"/>
</linearGradient>
<linearGradient id="paint12_linear_1_2269" x1="129.228" y1="206.873" x2="144.339" y2="180.641" gradientUnits="userSpaceOnUse">
<stop stop-color="#D7A866"/>
<stop offset="1" stop-color="#E7B19E"/>
</linearGradient>
<linearGradient id="paint13_linear_1_2269" x1="139.25" y1="213.666" x2="154.328" y2="187.488" gradientUnits="userSpaceOnUse">
<stop stop-color="#D7A866"/>
<stop offset="1" stop-color="#E7B19E"/>
</linearGradient>
<linearGradient id="paint14_linear_1_2269" x1="117.774" y1="200.474" x2="130.07" y2="179.139" gradientUnits="userSpaceOnUse">
<stop stop-color="#D7A866"/>
<stop offset="1" stop-color="#E7B19E"/>
</linearGradient>
<linearGradient id="paint15_linear_1_2269" x1="137.456" y1="212.552" x2="151.977" y2="187.347" gradientUnits="userSpaceOnUse">
<stop stop-color="#D7A866"/>
<stop offset="1" stop-color="#E7B19E"/>
</linearGradient>
<linearGradient id="paint16_linear_1_2269" x1="132.511" y1="210.466" x2="146.541" y2="186.125" gradientUnits="userSpaceOnUse">
<stop stop-color="#D7A866"/>
<stop offset="1" stop-color="#E7B19E"/>
</linearGradient>
<linearGradient id="paint17_linear_1_2269" x1="152.913" y1="340.381" x2="164.663" y2="319.997" gradientUnits="userSpaceOnUse">
<stop stop-color="#D7A866"/>
<stop offset="1" stop-color="#E7B19E"/>
</linearGradient>
<linearGradient id="paint18_linear_1_2269" x1="143.077" y1="335.751" x2="154.958" y2="315.148" gradientUnits="userSpaceOnUse">
<stop stop-color="#D7A866"/>
<stop offset="1" stop-color="#E7B19E"/>
</linearGradient>
<clipPath id="clip0_1_2269">
<rect width="264" height="326" fill="white"/>
</clipPath>
</defs>
</svg>
