<svg width="89" height="127" viewBox="0 0 89 127" fill="none" xmlns="http://www.w3.org/2000/svg">
<g clip-path="url(#clip0_1_514)">
<rect width="89" height="127" rx="6" fill="url(#paint0_linear_1_514)"/>
<g style="mix-blend-mode:overlay" filter="url(#filter0_f_1_514)">
<circle cx="86.5" cy="15.5" r="19.5" fill="white"/>
</g>
<g style="mix-blend-mode:soft-light">
<path d="M104.226 130.496L71.8617 149.303C71.1828 149.699 70.0782 149.699 69.3993 149.303L16.3297 118.664C15.6458 118.268 15.6434 117.63 16.3223 117.237L27.1512 110.942L48.6861 98.4277C49.365 98.0341 50.4696 98.0341 51.151 98.4277L85.3179 118.154L104.223 129.069C104.907 129.463 104.909 130.103 104.23 130.496H104.226Z" fill="url(#paint1_linear_1_514)"/>
</g>
<path d="M104.732 129.788V130.447C104.729 130.703 104.56 130.959 104.223 131.156L71.8589 149.962C71.18 150.356 70.0754 150.356 69.3965 149.962L16.3269 119.323C15.9825 119.124 15.8103 118.863 15.8128 118.605V117.945C15.8128 118.206 15.985 118.464 16.3269 118.664L69.3965 149.305C70.0804 149.699 71.1849 149.699 71.8639 149.305L104.228 130.496C104.565 130.299 104.734 130.044 104.734 129.788H104.732Z" fill="url(#paint2_linear_1_514)"/>
<g opacity="0.2">
<path d="M74.1885 127.48C74.7051 127.778 74.71 128.268 74.1934 128.568L39.6255 108.61C40.1421 108.31 40.9834 108.31 41.5025 108.61L74.186 127.48H74.1885Z" fill="#432626"/>
</g>
<g opacity="0.3">
<path d="M74.196 128.57L73.3743 129.047L38.8064 109.089L39.628 108.612L74.196 128.57Z" fill="#432626"/>
</g>
<g opacity="0.2">
<path d="M37.9822 109.567L38.8063 109.089L73.3742 129.047L72.5501 129.525L37.9822 109.567Z" fill="#432626"/>
</g>
<g opacity="0.3">
<path d="M72.5502 129.525L71.7286 130.002L37.1606 110.044L37.9823 109.567L72.5502 129.525Z" fill="#432626"/>
</g>
<g opacity="0.2">
<path d="M36.344 110.519L37.1607 110.044L71.7286 130.002L70.9119 130.477L36.344 110.519Z" fill="#432626"/>
</g>
<g opacity="0.3">
<path d="M70.9118 130.477L70.0901 130.954L35.5222 110.996L36.3439 110.519L70.9118 130.477Z" fill="#432626"/>
</g>
<g opacity="0.2">
<path d="M35.5173 111.001L70.0926 130.954C69.5711 131.256 68.7248 131.256 68.2082 130.959L35.5247 112.088C35.0056 111.788 35.0056 111.298 35.5198 111.001H35.5173Z" fill="#432626"/>
</g>
<path d="M101.829 131.889L95.1823 135.751L39.6404 103.682L46.2873 99.8201L101.829 131.889Z" fill="#DC8E46"/>
<g opacity="0.7">
<path d="M34.3536 120.976C34.452 121.033 34.5234 121.094 34.5677 121.163L34.4348 121.2C34.3881 121.134 34.3266 121.079 34.2479 121.035C34.1888 121.001 34.1298 120.981 34.0683 120.976C34.0092 120.971 33.9576 120.983 33.9108 121.011C33.8789 121.03 33.8567 121.05 33.8469 121.07C33.837 121.089 33.8395 121.111 33.8518 121.141C33.8641 121.168 33.8887 121.205 33.9281 121.254C33.9945 121.333 34.024 121.397 34.024 121.443C34.0215 121.49 33.9846 121.532 33.9182 121.571C33.8321 121.621 33.7362 121.643 33.6255 121.633C33.5148 121.626 33.4065 121.589 33.2983 121.527C33.1827 121.461 33.1089 121.399 33.0769 121.348L33.1851 121.284C33.2073 121.316 33.2368 121.35 33.2762 121.382C33.3131 121.414 33.3549 121.446 33.3992 121.471C33.4754 121.515 33.5468 121.539 33.6132 121.544C33.6796 121.549 33.7411 121.539 33.7903 121.507C33.8247 121.488 33.8444 121.468 33.8518 121.448C33.8592 121.429 33.8567 121.404 33.842 121.375C33.8272 121.345 33.8001 121.306 33.7583 121.254C33.6993 121.183 33.6747 121.124 33.6796 121.074C33.6821 121.028 33.7214 120.981 33.7928 120.942C33.8641 120.902 33.9551 120.88 34.056 120.885C34.1568 120.89 34.2552 120.922 34.3487 120.976H34.3536Z" fill="#432626"/>
<path d="M35.3772 121.584L35.2788 121.643L34.8458 121.394L34.5334 121.574L34.9393 121.808L34.8384 121.867L34.4325 121.633L34.0758 121.84L34.5088 122.09L34.4079 122.149L33.8618 121.835L34.8335 121.269L35.3772 121.584Z" fill="#432626"/>
<path d="M35.4828 122.265L35.3131 122.671L35.1778 122.595L35.3426 122.223L35.1409 122.105L34.7374 122.339L34.6243 122.272L35.5935 121.709L35.8616 121.864C35.9797 121.933 36.0486 121.997 36.0584 122.056C36.0732 122.115 36.0289 122.172 35.9404 122.226C35.8124 122.3 35.6599 122.314 35.4828 122.265ZM35.3918 122.137C35.473 122.184 35.5468 122.208 35.6156 122.211C35.6845 122.216 35.751 122.199 35.8149 122.162C35.8789 122.125 35.9059 122.085 35.8961 122.046C35.8862 122.009 35.8395 121.965 35.7559 121.918L35.6083 121.832L35.2368 122.049L35.3918 122.137Z" fill="#432626"/>
<path d="M37.1212 122.592L35.7977 122.951L35.687 122.887L36.3069 122.122L36.4275 122.191L36.024 122.686C35.9773 122.742 35.9281 122.794 35.874 122.843C35.9625 122.811 36.056 122.782 36.152 122.755L36.9982 122.521L37.1212 122.592Z" fill="#432626"/>
<path d="M37.3673 122.735L36.3981 123.298L36.2849 123.232L37.2542 122.669L37.3673 122.735Z" fill="#432626"/>
<path d="M38.0709 123.121C38.1742 123.18 38.2456 123.244 38.2849 123.311L38.1398 123.34C38.1004 123.279 38.0438 123.224 37.97 123.183C37.8618 123.121 37.7437 123.092 37.6109 123.097C37.4756 123.101 37.3477 123.141 37.2247 123.212C37.1017 123.283 37.0303 123.362 37.0229 123.436C37.0106 123.51 37.0623 123.581 37.1755 123.645C37.2419 123.684 37.3329 123.721 37.4461 123.758L37.3477 123.815C37.2542 123.79 37.1582 123.748 37.0598 123.692C36.9147 123.608 36.8458 123.52 36.8557 123.424C36.863 123.328 36.9491 123.234 37.109 123.141C37.2074 123.084 37.3157 123.042 37.4264 123.02C37.5395 122.998 37.6527 122.996 37.7634 123.013C37.8766 123.03 37.9799 123.067 38.0758 123.121H38.0709Z" fill="#432626"/>
<path d="M39.0451 123.702L38.9467 123.761L38.5162 123.512L38.2038 123.692L38.6072 123.926L38.5064 123.985L38.1029 123.751L37.7462 123.958L38.1767 124.208L38.0759 124.268L37.5322 123.953L38.5015 123.387L39.0451 123.702Z" fill="#432626"/>
<path d="M40.3808 124.474L39.4115 125.038L39.2811 124.961L39.5616 124.179H39.5567C39.4681 124.236 39.3869 124.29 39.3057 124.336L38.7547 124.656L38.6489 124.595L39.6182 124.031L39.7461 124.105L39.4681 124.885H39.473C39.473 124.885 39.5222 124.858 39.5837 124.819C39.6452 124.779 39.6895 124.752 39.719 124.737L40.275 124.413L40.3808 124.474Z" fill="#432626"/>
<path d="M34.8284 124.076L32.9932 125.143L32.7891 125.025L34.0978 124.265C34.206 124.201 34.3143 124.142 34.4176 124.09C34.3831 124.09 34.3438 124.09 34.302 124.088C34.2626 124.088 34.0781 124.076 33.7558 124.056L33.7878 123.911L34.6513 123.975L34.8284 124.078V124.076Z" fill="#432626"/>
<path d="M41.3869 125.055L40.7596 125.419C40.6513 125.483 40.5308 125.515 40.4004 125.512C40.2676 125.51 40.1446 125.475 40.0265 125.407C39.9084 125.338 39.8518 125.269 39.8494 125.193C39.8494 125.119 39.9059 125.047 40.0166 124.983L40.6415 124.619L40.7546 124.686L40.12 125.055C40.0388 125.101 39.9994 125.151 40.0019 125.202C40.0019 125.254 40.0462 125.303 40.1323 125.352C40.2184 125.402 40.2995 125.424 40.3881 125.424C40.4767 125.424 40.5603 125.402 40.6439 125.352L41.2762 124.986L41.3893 125.052L41.3869 125.055Z" fill="#432626"/>
<path d="M36.1398 124.801C36.3145 124.902 36.4055 125.008 36.4153 125.114C36.4252 125.222 36.3563 125.32 36.2087 125.406C36.0906 125.475 35.943 125.522 35.7634 125.552C35.5814 125.579 35.3157 125.593 34.9615 125.589L34.162 125.584L34.1521 125.589L35.1041 126.14L34.9123 126.253L33.697 125.552L33.8766 125.448H34.8508C35.1484 125.446 35.3501 125.441 35.4633 125.431C35.574 125.421 35.6699 125.406 35.7536 125.384C35.8397 125.362 35.9159 125.333 35.9848 125.291C36.0832 125.234 36.1324 125.173 36.13 125.104C36.13 125.035 36.0734 124.971 35.9651 124.91C35.8889 124.865 35.8028 124.831 35.7093 124.806C35.6158 124.782 35.4928 124.762 35.3428 124.752L35.3747 124.607C35.6872 124.622 35.943 124.688 36.1423 124.804L36.1398 124.801Z" fill="#432626"/>
<path d="M42.6145 125.763L41.6453 126.327L41.5321 126.26L42.1569 125.896C42.2283 125.854 42.3095 125.81 42.4005 125.766H42.3956L41.2025 126.068L41.109 126.014L41.6403 125.323L41.633 125.318C41.5715 125.362 41.4927 125.411 41.3993 125.466L40.7818 125.825L40.676 125.763L41.6453 125.2L41.815 125.298L41.323 125.943L41.3304 125.948L42.4423 125.662L42.612 125.761L42.6145 125.763Z" fill="#432626"/>
<path d="M42.8752 126.447C42.9982 126.548 42.9957 126.636 42.8653 126.71C42.7792 126.762 42.6809 126.784 42.5726 126.777C42.4644 126.772 42.3586 126.737 42.2528 126.676L41.9133 126.479L42.8826 125.916L43.1581 126.076C43.2885 126.152 43.3647 126.216 43.3844 126.27C43.4041 126.327 43.3721 126.378 43.2885 126.427C43.2294 126.462 43.1655 126.479 43.0966 126.484C43.0252 126.486 42.9539 126.474 42.8826 126.442L42.8752 126.447ZM42.5505 126.683C42.6218 126.688 42.6882 126.673 42.7522 126.636C42.8137 126.6 42.8358 126.565 42.8235 126.523C42.8137 126.484 42.7645 126.44 42.6808 126.39L42.4865 126.277L42.1224 126.489L42.3266 126.607C42.4053 126.654 42.4791 126.678 42.5505 126.683ZM42.8998 126.039L42.5825 126.223L42.7694 126.331C42.8506 126.378 42.9195 126.403 42.981 126.41C43.04 126.415 43.099 126.4 43.1581 126.366C43.2122 126.334 43.2344 126.299 43.2171 126.263C43.2024 126.226 43.1507 126.184 43.0646 126.135L42.8973 126.039" fill="#432626"/>
<path d="M37.6183 125.655C37.7979 125.758 37.8963 125.862 37.9135 125.967C37.9307 126.073 37.8692 126.167 37.7265 126.25C37.6109 126.317 37.4805 126.356 37.3403 126.359C37.2001 126.363 37.0549 126.339 36.9073 126.282L36.8975 126.287C37.0279 126.386 37.0918 126.474 37.0894 126.56C37.0845 126.644 37.023 126.723 36.9 126.794C36.7253 126.895 36.531 126.939 36.312 126.922C36.0955 126.907 35.8741 126.833 35.6503 126.703C35.5519 126.646 35.4707 126.59 35.4043 126.536C35.3354 126.479 35.2837 126.42 35.2444 126.354L35.4436 126.238C35.483 126.307 35.5396 126.373 35.6109 126.437C35.6823 126.501 35.7561 126.558 35.8372 126.605C36.157 126.789 36.4399 126.811 36.6884 126.666C36.9123 126.536 36.8458 126.368 36.4941 126.167L36.312 126.061L36.4916 125.958L36.6761 126.063C36.8212 126.147 36.9688 126.194 37.1164 126.206C37.264 126.218 37.392 126.191 37.5051 126.125C37.5937 126.073 37.6355 126.014 37.6232 125.948C37.6109 125.884 37.5519 125.82 37.4485 125.758C37.3649 125.712 37.2813 125.672 37.1853 125.645C37.0943 125.616 36.9713 125.594 36.8212 125.574L36.8557 125.431C36.991 125.441 37.1238 125.463 37.2567 125.5C37.3895 125.537 37.5125 125.589 37.6232 125.653L37.6183 125.655Z" fill="#432626"/>
<path d="M44.3144 126.745L44.216 126.801L43.7855 126.553L43.4731 126.735L43.879 126.969L43.7782 127.028L43.3723 126.794L43.0155 127.001L43.446 127.249L43.3452 127.308L42.7991 126.993L43.7708 126.43L44.3144 126.745Z" fill="#432626"/>
<path d="M44.4201 127.424L44.2503 127.83L44.115 127.753L44.2823 127.384L44.0781 127.266L43.6747 127.5L43.5615 127.434L44.5308 126.87L44.7989 127.025C44.9194 127.094 44.9859 127.158 44.9957 127.217C45.0105 127.276 44.9662 127.333 44.8776 127.387C44.7497 127.461 44.5972 127.475 44.4201 127.426V127.424ZM44.3315 127.298C44.4102 127.345 44.4865 127.37 44.5554 127.372C44.6242 127.377 44.6907 127.36 44.7546 127.323C44.8186 127.286 44.8456 127.247 44.8383 127.21C44.8284 127.173 44.7792 127.128 44.6956 127.079L44.548 126.993L44.1765 127.21L44.334 127.301" fill="#432626"/>
<path d="M26.8802 116.661C26.9836 116.72 27.0549 116.784 27.0918 116.848L26.9467 116.878C26.9073 116.816 26.8507 116.762 26.7769 116.72C26.6711 116.659 26.5506 116.629 26.4178 116.634C26.2849 116.639 26.157 116.678 26.034 116.75C25.911 116.821 25.8397 116.9 25.8298 116.971C25.82 117.047 25.8716 117.116 25.9823 117.18C26.0488 117.22 26.1398 117.257 26.2505 117.293L26.1521 117.35C26.0586 117.325 25.9627 117.284 25.8643 117.227C25.7216 117.146 25.6527 117.055 25.6625 116.959C25.6699 116.863 25.7536 116.769 25.9135 116.676C26.0119 116.619 26.1201 116.578 26.2333 116.555C26.3464 116.533 26.4596 116.531 26.5703 116.548C26.681 116.565 26.7868 116.602 26.8827 116.656L26.8802 116.661Z" fill="#432626"/>
<path d="M28.0463 117.352L27.419 117.717C27.3108 117.78 27.1877 117.81 27.0574 117.81C26.927 117.81 26.8015 117.773 26.6859 117.707C26.5703 117.64 26.5088 117.566 26.5088 117.493C26.5088 117.419 26.5629 117.348 26.6736 117.284L27.2985 116.919L27.4141 116.986L26.7794 117.355C26.6982 117.402 26.6588 117.451 26.6588 117.5C26.6588 117.552 26.7056 117.603 26.7917 117.653C26.8778 117.702 26.959 117.724 27.0475 117.724C27.1361 117.724 27.2197 117.702 27.3034 117.653L27.9356 117.286L28.0487 117.352H28.0463Z" fill="#432626"/>
<path d="M32.767 120.696L32.5973 121.102L32.462 121.025L32.6268 120.654L32.4226 120.536L32.0192 120.769L31.906 120.703L32.8752 120.14L33.1434 120.295C33.2639 120.364 33.3303 120.427 33.3426 120.489C33.3549 120.548 33.3131 120.605 33.2246 120.659C33.0966 120.733 32.9441 120.747 32.7645 120.696H32.767ZM32.6784 120.57C32.7596 120.617 32.8334 120.641 32.9023 120.644C32.9712 120.649 33.0351 120.629 33.0991 120.592C33.1631 120.555 33.1901 120.516 33.1827 120.479C33.1729 120.442 33.1237 120.398 33.0401 120.349L32.8925 120.263L32.521 120.479L32.6784 120.57Z" fill="#432626"/>
<path d="M32.6614 120.017L32.563 120.073L32.13 119.825L31.8176 120.007L32.2235 120.241L32.1226 120.3L31.7167 120.066L31.36 120.272L31.793 120.521L31.6921 120.58L31.146 120.265L32.1152 119.702L32.6614 120.017Z" fill="#432626"/>
<path d="M31.8472 119.547L30.8779 120.11L30.7648 120.044L31.3896 119.68C31.461 119.638 31.5421 119.594 31.6332 119.549H31.6282L30.4351 119.852L30.3441 119.8L30.873 119.109H30.8681C30.8066 119.151 30.7254 119.197 30.6319 119.254L30.0145 119.613L29.9087 119.552L30.8779 118.988L31.0501 119.087L30.5581 119.731H30.5631L31.6774 119.448L31.8447 119.547H31.8472Z" fill="#432626"/>
<path d="M28.5802 117.643C28.6761 117.699 28.7475 117.761 28.7942 117.83L28.6614 117.867C28.6146 117.8 28.5507 117.746 28.4744 117.702C28.4154 117.667 28.3563 117.648 28.2948 117.643C28.2358 117.638 28.1841 117.65 28.1374 117.677C28.1054 117.697 28.0808 117.717 28.0734 117.734C28.0661 117.753 28.0661 117.778 28.0784 117.805C28.0907 117.832 28.1153 117.872 28.1546 117.918C28.221 117.999 28.253 118.063 28.2506 118.108C28.2506 118.154 28.2137 118.196 28.1472 118.236C28.0611 118.285 27.9652 118.307 27.8545 118.297C27.7438 118.287 27.6356 118.253 27.5273 118.191C27.4092 118.125 27.3379 118.063 27.3035 118.012L27.4117 117.948C27.4363 117.982 27.4658 118.014 27.5027 118.046C27.5396 118.081 27.5814 118.11 27.6282 118.137C27.7044 118.182 27.7733 118.206 27.8422 118.211C27.9086 118.216 27.9677 118.204 28.0193 118.174C28.0538 118.154 28.0734 118.135 28.0808 118.115C28.0882 118.095 28.0857 118.071 28.0734 118.041C28.0587 118.012 28.0316 117.972 27.9898 117.921C27.9308 117.849 27.9062 117.788 27.9111 117.741C27.9135 117.694 27.9529 117.648 28.0242 117.608C28.0956 117.569 28.1866 117.547 28.2875 117.552C28.3883 117.557 28.4843 117.589 28.5802 117.643Z" fill="#432626"/>
<path d="M29.6675 118.287L29.5667 118.344L29.2592 118.167L28.3859 118.673L28.2727 118.607L29.1435 118.1L28.836 117.923L28.9344 117.864L29.6675 118.287Z" fill="#432626"/>
<path d="M30.4302 118.863C30.4179 118.959 30.3342 119.052 30.1793 119.143C30.0243 119.234 29.8619 119.281 29.6946 119.289C29.5274 119.293 29.3724 119.257 29.2322 119.175C29.0919 119.094 29.0231 119.003 29.0329 118.907C29.0403 118.811 29.1239 118.718 29.2838 118.624C29.4437 118.531 29.6036 118.484 29.7684 118.479C29.9333 118.474 30.0882 118.514 30.2309 118.597C30.3736 118.681 30.4376 118.767 30.4302 118.865V118.863ZM29.6774 119.202C29.8004 119.195 29.9283 119.151 30.0612 119.074C30.194 118.998 30.2629 118.924 30.2752 118.853C30.2875 118.782 30.2408 118.715 30.1325 118.654C30.0243 118.592 29.9087 118.563 29.7857 118.57C29.6602 118.578 29.5323 118.617 29.4019 118.693C29.2715 118.769 29.1977 118.846 29.1879 118.917C29.1756 118.988 29.2223 119.055 29.3306 119.119C29.4388 119.183 29.5544 119.21 29.6774 119.202Z" fill="#432626"/>
<path d="M24.5432 118.137L22.7081 119.205L22.5039 119.087L23.8126 118.327C23.9209 118.263 24.0266 118.204 24.13 118.152C24.0955 118.152 24.0586 118.152 24.0168 118.152C23.975 118.152 23.7929 118.14 23.4707 118.12L23.5002 117.972L24.3661 118.036L24.5432 118.14V118.137Z" fill="#432626"/>
<path d="M25.4707 119.889L25.2789 119.999L24.6589 119.643L24.8508 119.532L25.4707 119.889Z" fill="#432626"/>
<path d="M31.2445 122.253C31.1879 122.408 31.0059 122.573 30.6984 122.752C30.3909 122.932 30.0932 123.045 29.8374 123.077C29.5815 123.111 29.3478 123.067 29.1387 122.946C28.9296 122.826 28.8706 122.698 28.9247 122.546C28.9813 122.393 29.1633 122.226 29.4757 122.046C29.7882 121.867 30.0834 121.751 30.3367 121.719C30.5926 121.687 30.8238 121.731 31.028 121.849C31.2322 121.967 31.3011 122.1 31.242 122.255L31.2445 122.253ZM29.8078 122.91C29.9948 122.875 30.2187 122.782 30.4819 122.627C30.7451 122.472 30.9075 122.344 30.969 122.236C31.028 122.13 30.9886 122.034 30.8484 121.953C30.7082 121.871 30.5508 121.849 30.3638 121.884C30.1818 121.918 29.953 122.012 29.6873 122.167C29.4216 122.322 29.2593 122.454 29.1978 122.56C29.1412 122.669 29.1805 122.762 29.3183 122.841C29.4561 122.919 29.6233 122.944 29.8078 122.907" fill="#432626"/>
<path d="M29.7635 121.399C29.7069 121.552 29.5249 121.719 29.2174 121.899C28.9099 122.078 28.6098 122.191 28.3564 122.223C28.0981 122.255 27.8644 122.213 27.6577 122.093C27.4511 121.972 27.3871 121.844 27.4437 121.692C27.5003 121.537 27.6823 121.372 27.9923 121.193C28.3023 121.013 28.5999 120.897 28.8558 120.865C29.1116 120.833 29.3404 120.875 29.547 120.996C29.7537 121.116 29.8201 121.247 29.761 121.402L29.7635 121.399ZM28.3269 122.056C28.5114 122.019 28.7352 121.926 29.0009 121.773C29.2666 121.621 29.4265 121.49 29.488 121.382C29.5446 121.274 29.5052 121.18 29.3674 121.099C29.2297 121.018 29.0698 120.996 28.8828 121.03C28.6983 121.065 28.472 121.158 28.2063 121.313C27.9406 121.468 27.7758 121.598 27.7168 121.707C27.6602 121.815 27.6971 121.906 27.8373 121.987C27.9775 122.068 28.1399 122.09 28.3269 122.054" fill="#432626"/>
<path d="M28.2826 120.543C28.226 120.698 28.044 120.863 27.7365 121.043C27.429 121.222 27.1289 121.335 26.8755 121.367C26.6172 121.399 26.3859 121.357 26.1768 121.237C25.9677 121.116 25.9062 120.988 25.9628 120.836C26.0194 120.681 26.2014 120.516 26.5114 120.336C26.8214 120.157 27.119 120.041 27.3749 120.009C27.6307 119.977 27.8595 120.019 28.0661 120.14C28.2728 120.26 28.3392 120.391 28.2801 120.546L28.2826 120.543ZM26.846 121.2C27.0305 121.163 27.2568 121.072 27.52 120.917C27.7832 120.762 27.9456 120.632 28.0071 120.526C28.0637 120.418 28.0243 120.324 27.8865 120.243C27.7488 120.162 27.5889 120.14 27.4019 120.174C27.2174 120.209 26.9911 120.302 26.7254 120.457C26.4597 120.612 26.2949 120.742 26.2359 120.851C26.1793 120.959 26.2162 121.05 26.3564 121.131C26.4966 121.212 26.659 121.234 26.846 121.197" fill="#432626"/>
<path d="M32.0955 123.714L31.9036 123.825L31.2812 123.466L31.4731 123.355L32.0955 123.714Z" fill="#432626"/>
</g>
<path d="M89.7013 120.688L95.7996 124.132L101.883 127.601L103.403 128.469L104.164 128.905C104.415 129.042 104.712 129.242 104.816 129.579C104.867 129.743 104.85 129.93 104.779 130.085C104.71 130.24 104.594 130.366 104.471 130.464C104.343 130.568 104.21 130.636 104.087 130.708L103.709 130.929L102.196 131.812L96.1465 135.342L84.0187 142.353L77.9449 145.839L71.8564 149.3L77.8785 145.724L83.9154 142.171L96.0112 135.106L102.073 131.598L103.588 130.72L103.967 130.501C104.095 130.425 104.223 130.358 104.324 130.277C104.535 130.117 104.663 129.871 104.592 129.64C104.52 129.404 104.299 129.234 104.048 129.099L103.29 128.659L101.777 127.775L95.7308 124.24L89.6988 120.681L89.7013 120.688Z" fill="#432626"/>
<path d="M94.4787 113.924V114.581C94.4763 114.837 94.3065 115.095 93.9695 115.292L61.6058 134.099C60.9268 134.492 59.8272 134.495 59.1433 134.099L6.07127 103.457C5.72933 103.26 5.55713 103 5.55713 102.741V102.082C5.55959 102.343 5.72933 102.601 6.07127 102.8L59.1433 133.442C59.8272 133.836 60.9293 133.836 61.6082 133.44L93.972 114.633C94.309 114.436 94.4787 114.18 94.4787 113.924Z" fill="url(#paint3_linear_1_514)"/>
<g style="mix-blend-mode:soft-light">
<path d="M93.9668 113.206C94.6482 113.6 94.6507 114.239 93.9742 114.633L61.608 133.442C60.929 133.836 59.8269 133.838 59.1455 133.442L6.07102 102.8C5.3896 102.407 5.38714 101.767 6.06364 101.373L38.4299 82.5643C39.1088 82.1707 40.2109 82.1707 40.8923 82.5643L93.9644 113.206H93.9668Z" fill="url(#paint4_linear_1_514)"/>
</g>
<path d="M43.1928 86.7217L41.7783 87.5433L39.7783 86.3871L40.6418 85.8853C40.9444 85.7106 41.4388 85.7082 41.7439 85.8853L43.1928 86.7217Z" fill="url(#paint5_linear_1_514)"/>
<path d="M41.2863 87.5851H37.7168L39.4954 86.5519L41.2863 87.5851Z" fill="url(#paint6_linear_1_514)"/>
<path d="M41.3035 87.8189L37.8694 89.8139L35.8694 88.6602L37.3208 87.8164L41.3035 87.8189Z" fill="url(#paint7_linear_1_514)"/>
<path d="M47.8275 89.3982L46.413 90.2198L42.0613 87.7082L43.4758 86.8865L47.8275 89.3982Z" fill="url(#paint8_linear_1_514)"/>
<path d="M37.5864 89.9812L36.1744 90.8029L34.7254 89.9665C34.4204 89.7918 34.4179 89.5064 34.7205 89.3293L35.5864 88.825L37.5864 89.9812Z" fill="url(#paint9_linear_1_514)"/>
<path d="M43.8152 89.0464L40.1892 91.1522L38.1548 89.9787L41.7808 87.873L43.8152 89.0464Z" fill="url(#paint10_linear_1_514)"/>
<path d="M49.5592 90.3994C49.8643 90.5741 49.8643 90.8619 49.5592 91.0365L48.6958 91.5384L46.6958 90.3846L48.1103 89.563L49.5568 90.3994H49.5592Z" fill="url(#paint11_linear_1_514)"/>
<path d="M46.1324 90.3847L42.5063 92.4904L40.4744 91.317L44.1004 89.2112L46.1324 90.3847Z" fill="url(#paint12_linear_1_514)"/>
<path d="M48.4155 91.7032L46.9813 92.5372H42.9985L46.4179 90.5495L48.4155 91.7032Z" fill="url(#paint13_linear_1_514)"/>
<path d="M42.221 92.6552L40.809 93.4769L36.4597 90.9652L37.8718 90.1436L42.221 92.6552Z" fill="url(#paint14_linear_1_514)"/>
<path d="M46.5826 92.7684L44.7893 93.8114L42.9836 92.7684H46.5826Z" fill="url(#paint15_linear_1_514)"/>
<path d="M44.5065 93.9763L43.6406 94.4806C43.338 94.6552 42.846 94.6552 42.5434 94.4806L41.0969 93.6442L42.509 92.8225L44.5089 93.9763H44.5065Z" fill="url(#paint16_linear_1_514)"/>
<path d="M51.0893 119.996L49.4165 122.035L48.8211 121.691L49.2467 121.223L48.2996 120.677L47.4952 120.925L46.9023 120.584L50.4152 119.607L51.0893 119.996ZM48.8999 120.493L49.5764 120.884C49.9577 120.458 50.1766 120.219 50.2283 120.163C50.2775 120.109 50.3193 120.064 50.3537 120.035C50.1643 120.099 49.6797 120.251 48.8999 120.493Z" fill="url(#paint17_linear_1_514)"/>
<path d="M47.7485 119.742C47.7215 119.843 47.6255 119.942 47.4582 120.037C47.2221 120.175 46.9515 120.232 46.6489 120.21C46.3463 120.188 46.0462 120.092 45.7535 119.922L44.7793 119.361L47.3623 117.86L48.1716 118.328C48.5406 118.542 48.7547 118.726 48.8162 118.884C48.8777 119.041 48.7965 119.186 48.5702 119.317C48.4176 119.405 48.2528 119.457 48.0806 119.474C47.9084 119.489 47.751 119.469 47.6108 119.41L47.5935 119.42C47.7215 119.538 47.7707 119.646 47.7436 119.745L47.7485 119.742ZM46.5677 119.767C46.6981 119.774 46.8211 119.745 46.9416 119.676C47.1557 119.553 47.1089 119.4 46.8014 119.223L46.4595 119.026L45.7854 119.418L46.1446 119.624C46.2971 119.713 46.4373 119.759 46.5677 119.769M47.4656 118.441L46.8924 118.775L47.2122 118.96C47.3623 119.046 47.4927 119.095 47.6058 119.108C47.719 119.12 47.8297 119.095 47.9355 119.034C48.0339 118.977 48.0659 118.913 48.0363 118.847C48.0068 118.78 47.9133 118.699 47.7559 118.611L47.4656 118.443" fill="url(#paint18_linear_1_514)"/>
<path d="M54.6341 122.055L52.0511 123.555L51.35 123.149L52.1717 121.361L52.1569 121.351C51.8347 121.565 51.601 121.715 51.4534 121.799L50.2381 122.505L49.7437 122.219L52.3267 120.719L53.0228 121.12L52.2184 122.896L52.2307 122.903C52.5481 122.699 52.7744 122.554 52.9146 122.473L54.1372 121.762L54.6341 122.05V122.055Z" fill="url(#paint19_linear_1_514)"/>
<path d="M57.3722 123.634L55.323 123.777L54.7966 125.142L54.1693 124.78L54.5776 123.755L54.1766 123.715L53.2541 124.251L52.7056 123.934L55.2886 122.431L55.8396 122.751L54.6563 123.437L55.1803 123.386L56.7596 123.282L57.3722 123.634Z" fill="url(#paint20_linear_1_514)"/>
<path d="M60.9586 126.229L60.9611 127.078H59.4974L59.49 126.229H60.9586Z" fill="url(#paint21_linear_1_514)"/>
<path d="M60.9488 124.807L60.9562 126.028L59.1432 126.03L59.1481 127.078H57.0399L57.0276 124.807H60.9488Z" fill="url(#paint22_linear_1_514)"/>
<path d="M63.4136 126.229L63.4259 128.502H59.5047L59.4973 127.28H61.3103L61.303 126.229H63.4136Z" fill="url(#paint23_linear_1_514)"/>
<g opacity="0.7">
<path d="M86.0261 112.539C86.0359 112.726 85.8982 112.903 85.6153 113.068C85.3152 113.243 84.9978 113.327 84.6633 113.319C84.3312 113.314 84.0015 113.216 83.6768 113.029L83.1553 112.726L84.9855 111.664L85.5661 111.998C85.8662 112.17 86.0212 112.352 86.031 112.539H86.0261ZM84.0335 112.864C84.4099 113.081 84.7961 113.073 85.1995 112.84C85.603 112.606 85.6153 112.397 85.2635 112.195L85.0544 112.074L83.8638 112.766L84.031 112.864" fill="#432626"/>
<path d="M83.1776 111.819C83.0448 112.22 82.9611 112.475 82.9218 112.596L82.4888 112.345L82.752 111.683L82.5429 111.563L81.8418 111.971L81.4507 111.745L83.2809 110.682L83.8172 110.992C84.0657 111.137 84.2083 111.27 84.2379 111.391C84.2674 111.511 84.1887 111.627 84.0066 111.735C83.8984 111.796 83.7705 111.836 83.6278 111.851C83.4851 111.865 83.335 111.853 83.1776 111.819ZM83.3203 111.575C83.4187 111.585 83.5122 111.565 83.6007 111.514C83.6893 111.462 83.7213 111.41 83.6967 111.354C83.6745 111.297 83.5983 111.233 83.4728 111.162L83.3547 111.093L82.8603 111.381L82.9857 111.452C83.1087 111.523 83.2219 111.565 83.3203 111.575Z" fill="#432626"/>
<path d="M82.4025 110.165L81.2193 111.609L80.7986 111.366L81.1012 111.036L80.4296 110.65L79.8589 110.825L79.4382 110.584L81.9253 109.89L82.4025 110.165ZM80.8527 110.517L81.3324 110.795C81.603 110.495 81.7556 110.325 81.7949 110.286C81.8318 110.247 81.8613 110.217 81.8859 110.195C81.7506 110.242 81.4062 110.35 80.8552 110.517" fill="#432626"/>
<path d="M80.6658 109.142C80.8454 109.245 80.9831 109.373 81.0766 109.528L80.6363 109.639C80.5994 109.58 80.5576 109.523 80.5133 109.469C80.4665 109.415 80.41 109.368 80.3435 109.329C80.1984 109.245 80.0287 109.211 79.8392 109.228C79.6474 109.245 79.453 109.309 79.2587 109.425C78.8503 109.661 78.8011 109.87 79.1086 110.047C79.239 110.124 79.426 110.195 79.6744 110.264L79.3497 110.453C79.1357 110.402 78.934 110.323 78.7495 110.215C78.4813 110.06 78.3559 109.895 78.3755 109.72C78.3977 109.546 78.5576 109.368 78.8602 109.194C79.052 109.083 79.2513 109.007 79.4653 108.963C79.6769 108.918 79.886 108.913 80.0951 108.943C80.3017 108.975 80.4936 109.041 80.6683 109.142H80.6658Z" fill="#432626"/>
<path d="M78.9046 108.156L78.5799 108.343L78.0805 108.055L76.575 108.931L76.1838 108.704L77.6894 107.828L77.19 107.541L77.5122 107.351L78.9046 108.156Z" fill="#432626"/>
<path d="M77.2292 107.189L75.3989 108.252L75.0103 108.025L76.838 106.963L77.2292 107.189Z" fill="#432626"/>
<path d="M75.9722 106.736C75.9795 106.923 75.8442 107.1 75.5613 107.265C75.2612 107.44 74.9439 107.523 74.6093 107.516C74.2772 107.511 73.9476 107.413 73.6204 107.223L73.0989 106.923L74.9291 105.86L75.5072 106.195C75.8073 106.37 75.9623 106.549 75.9722 106.736ZM73.9796 107.061C74.3535 107.277 74.7422 107.27 75.1456 107.036C75.549 106.803 75.5589 106.594 75.2096 106.392L75.0005 106.271L73.8098 106.963L73.9771 107.061" fill="#432626"/>
<path d="M74.5453 105.639L74.2279 105.824L73.5564 105.437L73.1554 105.671L73.7778 106.03L73.4604 106.215L72.838 105.856L72.3657 106.129L73.0373 106.515L72.715 106.702L71.6548 106.089L73.485 105.027L74.5453 105.639Z" fill="#432626"/>
<path d="M71.6796 105.179C71.5443 105.578 71.4606 105.836 71.4237 105.956L70.9908 105.706L71.2515 105.044L71.0424 104.923L70.3413 105.332L69.9502 105.105L71.7804 104.043L72.3167 104.353C72.5676 104.498 72.7079 104.63 72.7374 104.751C72.7669 104.874 72.6882 104.987 72.5061 105.095C72.3979 105.157 72.2724 105.199 72.1273 105.211C71.9846 105.226 71.8346 105.214 71.6771 105.179H71.6796ZM71.8198 104.933C71.9207 104.943 72.0141 104.923 72.1027 104.872C72.1913 104.82 72.2208 104.768 72.1962 104.712C72.174 104.655 72.0978 104.591 71.9723 104.52L71.8542 104.451L71.3598 104.739L71.4877 104.813C71.6107 104.884 71.7214 104.923 71.8198 104.933Z" fill="#432626"/>
<path d="M70.9464 103.531C71.1259 103.634 71.2637 103.762 71.3547 103.917L70.9144 104.028C70.8775 103.969 70.8357 103.915 70.7914 103.858C70.7471 103.804 70.6905 103.757 70.6216 103.72C70.474 103.634 70.3068 103.602 70.1149 103.617C69.923 103.634 69.7311 103.701 69.5343 103.814C69.126 104.05 69.0768 104.259 69.3843 104.436C69.5122 104.51 69.7016 104.584 69.9501 104.653L69.6253 104.842C69.4113 104.79 69.2121 104.712 69.0251 104.606C68.757 104.451 68.6315 104.286 68.6512 104.111C68.6733 103.937 68.8332 103.76 69.1333 103.585C69.3252 103.474 69.5269 103.398 69.7385 103.354C69.9525 103.312 70.1616 103.305 70.3683 103.336C70.5749 103.368 70.7668 103.435 70.9414 103.536L70.9464 103.531Z" fill="#432626"/>
<path d="M32.2726 93.9443C32.189 94.1706 31.9233 94.4141 31.4707 94.6773C31.018 94.9406 30.5826 95.1078 30.2062 95.1546C29.8274 95.2038 29.4855 95.1398 29.1829 94.9627C28.8803 94.7856 28.7844 94.5986 28.868 94.3723C28.9516 94.146 29.2222 93.9024 29.6749 93.6368C30.1275 93.3711 30.5679 93.2038 30.9442 93.1571C31.3182 93.1103 31.6576 93.1718 31.9602 93.3465C32.2628 93.5211 32.3587 93.7155 32.2726 93.9418V93.9443ZM30.1644 94.911C30.4375 94.8569 30.7671 94.7192 31.1558 94.4953C31.5445 94.2714 31.7806 94.0796 31.8717 93.9197C31.9578 93.7622 31.8987 93.622 31.6945 93.5039C31.4904 93.3858 31.2542 93.3539 30.9836 93.4031C30.713 93.4523 30.3809 93.5925 29.9898 93.8188C29.5986 94.0451 29.3575 94.2395 29.2714 94.3969C29.1853 94.5543 29.2444 94.6921 29.4461 94.8077C29.6478 94.9233 29.8914 94.9602 30.1644 94.9086" fill="#432626"/>
<path d="M37.4953 96.5961L34.7967 98.1631L34.4966 97.9885L36.4203 96.8716C36.5802 96.7781 36.7352 96.6945 36.8902 96.6158C36.8385 96.6158 36.7819 96.6158 36.7204 96.6133C36.6614 96.6109 36.3932 96.5961 35.9209 96.5666L35.9677 96.3501L37.237 96.4436L37.4978 96.5936L37.4953 96.5961Z" fill="#432626"/>
<path d="M32.3785 98.3772L31.6405 98.8052L25.0034 94.975L25.7414 94.5469L32.3785 98.3772Z" fill="#432626"/>
<path d="M34.9418 95.4842C34.8582 95.7105 34.59 95.954 34.1399 96.2148C33.6897 96.4756 33.2518 96.6453 32.8754 96.692C32.4966 96.7412 32.1546 96.6773 31.8521 96.5002C31.5495 96.323 31.4535 96.1361 31.5372 95.9098C31.6208 95.6859 31.8939 95.4399 32.3465 95.1767C32.7992 94.9135 33.237 94.7437 33.6134 94.6945C33.9873 94.6478 34.3293 94.7117 34.6294 94.8839C34.9295 95.0561 35.0279 95.2529 34.9443 95.4793L34.9418 95.4842ZM32.8311 96.451C33.1067 96.3993 33.4363 96.2615 33.825 96.0352C34.2137 95.8089 34.4498 95.6195 34.5384 95.4596C34.6245 95.3021 34.5679 95.1644 34.3613 95.0438C34.1546 94.9233 33.9209 94.8938 33.6503 94.943C33.3797 94.9922 33.0476 95.1324 32.6565 95.3587C32.2653 95.585 32.0243 95.7794 31.9382 95.9368C31.8521 96.0943 31.9111 96.232 32.1128 96.3476C32.3145 96.4633 32.5581 96.5002 32.8311 96.4485" fill="#432626"/>
<path d="M41.6477 98.9922L38.949 100.559L38.6489 100.385L40.5726 99.2677C40.7325 99.1742 40.8875 99.0906 41.0425 99.0118C40.9884 99.0118 40.9343 99.0118 40.8728 99.0094C40.8137 99.0069 40.5431 98.9922 40.0733 98.9626L40.12 98.7462L41.3894 98.8396L41.6501 98.9897L41.6477 98.9922Z" fill="#432626"/>
<path d="M44.0635 100.345C44.3169 100.493 44.4546 100.645 44.4694 100.805C44.4841 100.965 44.3808 101.108 44.1643 101.233C43.9946 101.332 43.7757 101.403 43.5124 101.445C43.2492 101.487 42.8556 101.506 42.3366 101.501L41.1656 101.494L41.1508 101.501L42.5457 102.308L42.2603 102.473L40.4768 101.442L40.7425 101.287H42.1717C42.6096 101.285 42.9073 101.278 43.0721 101.263C43.2345 101.248 43.3771 101.226 43.5001 101.194C43.6256 101.162 43.7388 101.118 43.8396 101.059C43.9823 100.975 44.0536 100.884 44.0487 100.783C44.0438 100.685 43.9651 100.589 43.8101 100.498C43.6994 100.434 43.5715 100.382 43.4362 100.345C43.296 100.308 43.1188 100.284 42.8974 100.269L42.9417 100.052C43.3968 100.077 43.7732 100.175 44.0684 100.345H44.0635Z" fill="#432626"/>
<path d="M65.9797 113.637C65.8715 113.784 65.6993 113.929 65.4533 114.072C64.3955 114.687 63.4582 114.756 62.6366 114.281C62.4914 114.197 62.3906 114.126 62.3315 114.062L62.5972 113.907C62.6636 113.983 62.762 114.057 62.8875 114.129C63.1852 114.301 63.5 114.377 63.8346 114.36C64.1692 114.343 64.5308 114.227 64.9219 114.015L64.8998 114.003C64.73 114.023 64.5628 114.015 64.3955 113.983C64.2282 113.949 64.0757 113.89 63.933 113.809C63.6919 113.671 63.5738 113.518 63.5763 113.354C63.5763 113.189 63.7067 113.034 63.9625 112.884C64.243 112.721 64.5431 112.638 64.8653 112.635C65.1851 112.633 65.473 112.707 65.7313 112.854C65.9158 112.962 66.0314 113.081 66.0757 113.216C66.1199 113.349 66.088 113.491 65.9822 113.639L65.9797 113.637ZM65.0302 113.863C65.163 113.848 65.2737 113.816 65.3598 113.764C65.4902 113.688 65.5837 113.607 65.6427 113.514C65.7017 113.42 65.7165 113.329 65.687 113.24C65.6599 113.152 65.5861 113.073 65.468 113.004C65.2909 112.901 65.099 112.857 64.8899 112.867C64.6784 112.876 64.4717 112.94 64.27 113.056C64.0929 113.159 63.9994 113.265 63.9847 113.376C63.9724 113.486 64.0585 113.595 64.2405 113.7C64.3512 113.764 64.4791 113.814 64.6193 113.841C64.7596 113.868 64.8949 113.875 65.0302 113.86" fill="#432626"/>
<path d="M60.7225 111.86C60.7004 111.981 60.6143 112.084 60.4642 112.173C60.2379 112.303 59.9821 112.362 59.6918 112.347C59.4015 112.335 59.1211 112.249 58.8456 112.092C58.5577 111.924 58.3954 111.76 58.3659 111.597C58.3363 111.432 58.4372 111.285 58.666 111.149C58.9759 110.97 59.4064 110.94 59.9575 111.058C59.8837 110.903 59.8615 110.773 59.9009 110.665C59.9378 110.557 60.0239 110.463 60.1617 110.384C60.3585 110.271 60.5872 110.222 60.848 110.239C61.1112 110.256 61.3621 110.335 61.6057 110.475C61.8492 110.616 61.9919 110.763 62.0239 110.913C62.0559 111.063 61.9698 111.199 61.768 111.314C61.6352 111.391 61.4728 111.437 61.2785 111.452C61.0866 111.467 60.8554 111.45 60.5823 111.395C60.6979 111.582 60.7471 111.737 60.7225 111.858V111.86ZM59.6451 112.116C59.8345 112.126 60.0042 112.084 60.1518 111.998C60.2724 111.929 60.3289 111.838 60.3265 111.73C60.3216 111.622 60.2453 111.472 60.0903 111.282C59.8271 111.221 59.6057 111.194 59.4286 111.204C59.2515 111.211 59.0965 111.253 58.9636 111.331C58.816 111.418 58.7521 111.514 58.7742 111.622C58.7939 111.73 58.8972 111.838 59.0842 111.946C59.2711 112.055 59.4581 112.111 59.6451 112.121M60.2674 110.803C60.2601 110.891 60.3142 111.017 60.4298 111.179C60.6807 111.238 60.8849 111.265 61.0423 111.258C61.2022 111.25 61.3375 111.216 61.4507 111.149C61.5762 111.078 61.6278 110.994 61.6106 110.899C61.5958 110.805 61.5073 110.712 61.3523 110.621C61.1973 110.53 61.0374 110.483 60.8775 110.475C60.7152 110.468 60.5725 110.5 60.4495 110.571C60.3363 110.638 60.2773 110.716 60.2674 110.805" fill="#432626"/>
<path d="M59.7953 109.472L59.5493 109.614L55.9872 110.397L55.6453 110.2L59.1852 109.447L57.7067 108.591L57.9896 108.426L59.7953 109.472Z" fill="#432626"/>
<path d="M55.6895 108.532C55.6822 108.697 55.5543 108.854 55.3033 108.999C55.0229 109.162 54.7228 109.245 54.4128 109.25C54.0979 109.255 53.8101 109.182 53.5469 109.029C53.2664 108.867 53.1484 108.677 53.1927 108.461C53.2369 108.244 53.446 108.028 53.8199 107.809C54.3513 107.501 54.8531 107.332 55.3205 107.297C55.7904 107.265 56.2283 107.366 56.6342 107.6C56.7744 107.681 56.8728 107.75 56.9294 107.811L56.6637 107.966C56.5998 107.895 56.5063 107.821 56.3833 107.75C56.093 107.583 55.7806 107.504 55.446 107.521C55.1139 107.536 54.7449 107.654 54.3439 107.868L54.3661 107.88C54.7129 107.836 55.0352 107.9 55.3279 108.07C55.5715 108.21 55.692 108.362 55.6871 108.53L55.6895 108.532ZM54.3759 109.017C54.5826 109.009 54.7892 108.945 54.9983 108.825C55.1754 108.721 55.2714 108.613 55.2837 108.503C55.296 108.392 55.2123 108.284 55.0327 108.18C54.922 108.116 54.7941 108.07 54.6564 108.043C54.5186 108.015 54.3808 108.008 54.2455 108.023C54.1102 108.038 53.9995 108.07 53.9134 108.121C53.788 108.195 53.692 108.279 53.633 108.37C53.5739 108.463 53.5592 108.552 53.5838 108.643C53.6109 108.731 53.6822 108.81 53.8003 108.879C53.9749 108.98 54.1668 109.029 54.3759 109.019" fill="#432626"/>
<path d="M54.2429 106.264L53.96 106.429L52.8727 105.801L51.9945 106.232C52.1667 106.298 52.3217 106.37 52.4619 106.453C52.7497 106.618 52.9047 106.79 52.9268 106.967C52.949 107.142 52.8407 107.302 52.5947 107.445C52.3143 107.607 52.0068 107.683 51.6698 107.671C51.3328 107.659 51.008 107.563 50.6932 107.383C50.3783 107.204 50.2012 107.044 50.1372 106.894L50.4324 106.721C50.4644 106.805 50.5283 106.891 50.6267 106.985C50.7227 107.078 50.8358 107.159 50.9613 107.233C51.1778 107.359 51.3992 107.427 51.623 107.437C51.8444 107.447 52.0535 107.398 52.2479 107.285C52.6243 107.066 52.58 106.822 52.115 106.554C51.997 106.488 51.8223 106.407 51.5886 106.313L51.532 106.161L52.8973 105.487L54.2479 106.266L54.2429 106.264Z" fill="#432626"/>
<path d="M48.2208 104.874L48.6243 105.108L48.3463 105.27L47.9429 105.036L47.3229 105.396L47.0302 105.226L47.6501 104.867L46.3291 104.104L46.5972 103.949L49.7116 103.634L50.0388 103.824L48.2258 104.876L48.2208 104.874ZM48.8235 104.183C49.0007 104.079 49.2048 103.966 49.4361 103.846L49.4213 103.838C49.2442 103.873 49.0917 103.897 48.9613 103.91L46.9121 104.119L47.9256 104.704L48.8211 104.183" fill="#432626"/>
<path d="M46.73 101.883C46.9957 102.035 47.1383 102.188 47.1654 102.343C47.1925 102.498 47.099 102.635 46.8899 102.756C46.7177 102.857 46.5283 102.911 46.3241 102.918C46.1174 102.926 45.9059 102.889 45.6894 102.808L45.6746 102.817C45.8665 102.958 45.96 103.093 45.9526 103.218C45.9477 103.341 45.8567 103.457 45.6746 103.563C45.4188 103.713 45.131 103.774 44.8112 103.752C44.4938 103.73 44.1691 103.622 43.8395 103.43C43.6968 103.349 43.5738 103.265 43.4754 103.184C43.377 103.103 43.3007 103.014 43.2417 102.916L43.5344 102.746C43.5935 102.847 43.6747 102.945 43.778 103.041C43.8813 103.135 43.992 103.216 44.1125 103.285C44.5824 103.555 44.9981 103.585 45.3647 103.373C45.6919 103.184 45.5959 102.94 45.0793 102.64L44.8112 102.485L45.0769 102.33L45.3475 102.488C45.559 102.611 45.7706 102.68 45.9871 102.697C46.2035 102.714 46.3954 102.677 46.5627 102.579C46.6931 102.503 46.7497 102.416 46.7349 102.321C46.7201 102.225 46.6316 102.131 46.4791 102.043C46.3585 101.974 46.2306 101.917 46.0953 101.875C45.9575 101.833 45.7804 101.799 45.5566 101.769L45.6082 101.56C45.805 101.573 46.0018 101.607 46.2011 101.664C46.3954 101.718 46.5725 101.794 46.7324 101.885L46.73 101.883Z" fill="#432626"/>
<path d="M68.6316 114.571L65.9329 116.138L65.6328 115.964L67.5565 114.847C67.7164 114.753 67.8714 114.667 68.0239 114.591C67.9723 114.591 67.9157 114.591 67.8542 114.589C67.7952 114.589 67.527 114.571 67.0547 114.542L67.1014 114.325L68.3708 114.419L68.6316 114.569V114.571Z" fill="#432626"/>
<path d="M73.9697 117.654L71.2711 119.221L70.9709 119.046L72.8947 117.929C73.0546 117.836 73.2095 117.75 73.3621 117.673C73.3104 117.673 73.2538 117.673 73.1923 117.671C73.1333 117.671 72.8651 117.654 72.3928 117.624L72.4396 117.408L73.7089 117.501L73.9697 117.651V117.654Z" fill="#432626"/>
<path d="M71.4138 116.542C71.3302 116.768 71.0645 117.012 70.6119 117.275C70.1592 117.538 69.7213 117.705 69.345 117.752C68.9661 117.801 68.6266 117.737 68.3216 117.563C68.0166 117.388 67.9231 117.199 68.0067 116.972C68.0904 116.746 68.361 116.502 68.8136 116.237C69.2662 115.971 69.7066 115.804 70.0805 115.755C70.4544 115.708 70.7964 115.772 71.0989 115.946C71.4015 116.121 71.4975 116.315 71.4114 116.542H71.4138ZM69.3031 117.509C69.5787 117.457 69.9083 117.319 70.297 117.093C70.6857 116.867 70.9218 116.677 71.0104 116.517C71.0989 116.36 71.0399 116.222 70.8357 116.104C70.6315 115.986 70.3954 115.951 70.1248 116.001C69.8542 116.05 69.5221 116.19 69.1309 116.416C68.7398 116.643 68.4987 116.837 68.4126 116.994C68.3265 117.152 68.3856 117.29 68.5897 117.408C68.7939 117.526 69.035 117.56 69.3056 117.506" fill="#432626"/>
<path d="M20.8904 98.264L19.4463 99.1028L19.2126 98.9675L20.1425 98.4263C20.2532 98.3624 20.3442 98.3107 20.4131 98.2763C20.3836 98.2763 20.3492 98.2763 20.3073 98.2763C20.2655 98.2763 20.1302 98.2664 19.9014 98.2541L19.931 98.1016L20.6911 98.1533L20.8879 98.2664L20.8904 98.264Z" fill="#432626"/>
<path d="M16.086 101.098C16.2336 101.184 16.3418 101.28 16.4058 101.388L16.1229 101.452C16.0958 101.41 16.0663 101.371 16.0269 101.329C15.99 101.287 15.9433 101.248 15.8818 101.213C15.744 101.135 15.589 101.1 15.4144 101.113C15.2397 101.122 15.0675 101.177 14.8978 101.275C14.728 101.373 14.6247 101.477 14.61 101.573C14.5952 101.669 14.6567 101.757 14.7994 101.841C14.8609 101.878 14.9273 101.907 14.9962 101.934C15.0651 101.959 15.1413 101.986 15.2225 102.011L15.0183 102.129C14.8633 102.087 14.7133 102.025 14.5681 101.942C14.3541 101.819 14.2557 101.688 14.2705 101.548C14.2852 101.408 14.4107 101.27 14.6493 101.132C14.7994 101.044 14.9593 100.985 15.1266 100.95C15.2938 100.916 15.4611 100.913 15.6259 100.94C15.7883 100.965 15.9433 101.019 16.0835 101.1L16.086 101.098Z" fill="#432626"/>
<path d="M17.6159 101.996L16.7106 103.152L16.4572 103.007L16.7131 102.69L16.1571 102.37L15.6135 102.52L15.365 102.375L17.3576 101.846L17.6159 101.996ZM16.4326 102.289L16.8557 102.532L17.1116 102.225C17.1263 102.205 17.1534 102.173 17.1928 102.129C17.2346 102.084 17.2617 102.055 17.2813 102.035C17.1829 102.072 17.0673 102.107 16.9369 102.143L16.4302 102.286" fill="#432626"/>
<path d="M18.4843 103.435L18.2556 104.043L17.985 103.888L18.2113 103.351L17.9776 103.216L17.4019 103.551L17.1658 103.413L18.6098 102.574L19.0206 102.81C19.2076 102.918 19.3109 103.019 19.333 103.11C19.3527 103.204 19.2912 103.29 19.151 103.371C18.969 103.477 18.75 103.494 18.4843 103.432V103.435ZM18.6418 103.302C18.7328 103.307 18.8164 103.287 18.8976 103.241C18.9788 103.194 19.0108 103.142 18.9936 103.091C18.9763 103.039 18.9124 102.982 18.8041 102.921L18.6467 102.83L18.1744 103.103L18.3392 103.199C18.4499 103.263 18.5508 103.297 18.6418 103.302Z" fill="#432626"/>
<path d="M20.9764 104.158C20.9813 104.303 20.8706 104.441 20.6492 104.571C20.4106 104.709 20.1597 104.778 19.9039 104.773C19.6431 104.768 19.3897 104.697 19.1388 104.552L18.7329 104.318L20.1769 103.479L20.6246 103.737C20.8559 103.87 20.974 104.011 20.9789 104.158H20.9764ZM19.3356 104.436C19.6874 104.638 20.0367 104.635 20.3885 104.431C20.7403 104.227 20.7452 104.038 20.4205 103.851L20.2138 103.733L19.1659 104.34L19.3331 104.439" fill="#432626"/>
<path d="M24.1153 103.179L23.3773 103.607L16.7402 99.7769L17.4807 99.3464L24.1153 103.179Z" fill="#432626"/>
<path d="M26.4033 101.447L26.1967 101.568L25.6456 101.25L25.2569 101.44C25.284 101.452 25.316 101.464 25.3553 101.482C25.3922 101.496 25.4365 101.521 25.4833 101.548C25.6284 101.632 25.7096 101.723 25.717 101.816C25.7268 101.91 25.6628 101.996 25.5325 102.072C25.3775 102.163 25.2077 102.202 25.0232 102.197C24.8412 102.193 24.6567 102.136 24.4796 102.033C24.3172 101.939 24.2188 101.851 24.177 101.767L24.3861 101.644C24.4082 101.693 24.4476 101.742 24.4993 101.792C24.5534 101.843 24.61 101.883 24.669 101.917C24.7748 101.979 24.8781 102.011 24.979 102.015C25.0798 102.02 25.1758 101.996 25.2668 101.944C25.439 101.843 25.4144 101.73 25.193 101.602C25.161 101.585 25.1192 101.563 25.07 101.541C25.0159 101.519 24.9716 101.499 24.9273 101.484L24.883 101.388L25.6456 101.012L26.4008 101.447H26.4033Z" fill="#432626"/>
<path d="M24.6173 100.392C24.7526 100.471 24.8264 100.554 24.8362 100.64C24.8485 100.729 24.7944 100.805 24.6763 100.874C24.6123 100.911 24.5385 100.943 24.4549 100.963C24.3737 100.982 24.2753 100.997 24.1646 101.004C24.0539 101.012 23.8891 101.014 23.6702 101.012L23.1757 101.007L23.1683 101.012L23.8571 101.41L23.6529 101.528L22.6689 100.96L22.8461 100.857H23.5939C23.8178 100.857 23.9703 100.852 24.0539 100.845C24.1351 100.84 24.2064 100.827 24.2655 100.813C24.3245 100.798 24.3762 100.778 24.4254 100.751C24.4893 100.714 24.5213 100.672 24.5189 100.628C24.5189 100.584 24.482 100.542 24.4131 100.5C24.359 100.468 24.2925 100.444 24.2212 100.424C24.1499 100.407 24.0515 100.392 23.9285 100.385L23.9555 100.222C24.1031 100.23 24.231 100.247 24.3344 100.274C24.4377 100.301 24.5336 100.34 24.6197 100.389L24.6173 100.392Z" fill="#432626"/>
<path d="M23.7415 99.9097L21.7563 100.436L21.5374 100.311L23.5226 99.7842L23.7415 99.9097Z" fill="#432626"/>
<path d="M22.1351 98.9602C22.2704 99.0389 22.3442 99.1225 22.354 99.2086C22.3639 99.2972 22.3122 99.3735 22.1941 99.4423C22.1302 99.4792 22.0539 99.5088 21.9727 99.5309C21.8916 99.5506 21.7932 99.5653 21.6825 99.5727C21.5718 99.5801 21.4045 99.5826 21.1855 99.5776L20.6911 99.5727L20.6837 99.5776L21.3725 99.9762L21.1683 100.094L20.1843 99.526L20.3614 99.4227H21.1093C21.3331 99.4202 21.4857 99.4177 21.5693 99.4104C21.6505 99.4054 21.7218 99.3931 21.7809 99.3784C21.8374 99.3636 21.8916 99.3415 21.9383 99.3144C22.0023 99.2775 22.0367 99.2357 22.0342 99.1914C22.0342 99.1471 21.9949 99.1029 21.9285 99.0635C21.8719 99.0315 21.8079 99.0069 21.7366 98.9872C21.6652 98.97 21.5668 98.9553 21.4438 98.9479L21.4709 98.7855C21.6185 98.7929 21.744 98.8101 21.8473 98.8372C21.9531 98.8667 22.049 98.9036 22.1351 98.9528V98.9602Z" fill="#432626"/>
<path d="M27.756 108.072C27.7609 108.217 27.6502 108.355 27.4288 108.485C27.1902 108.623 26.9393 108.692 26.6834 108.687C26.4251 108.685 26.1693 108.611 25.9184 108.466L25.5125 108.232L26.9565 107.393L27.4042 107.651C27.6354 107.784 27.7535 107.924 27.7584 108.072H27.756ZM26.1152 108.35C26.4669 108.552 26.8163 108.549 27.168 108.345C27.5198 108.141 27.5247 107.951 27.2 107.764L26.9934 107.646L25.9454 108.254L26.1127 108.352" fill="#432626"/>
<path d="M25.825 106.741L24.5851 107.462L25.2001 107.819L24.996 107.937L24.1423 107.445L25.5864 106.606L25.825 106.741Z" fill="#432626"/>
<path d="M24.6614 106.271C24.6491 106.416 24.5285 106.554 24.2924 106.692C24.0562 106.83 23.8151 106.901 23.5667 106.908C23.3182 106.916 23.087 106.857 22.8705 106.731C22.654 106.606 22.5458 106.471 22.5581 106.328C22.5704 106.185 22.6958 106.045 22.9345 105.907C23.1731 105.769 23.4142 105.696 23.6602 105.691C23.9062 105.683 24.1374 105.745 24.3563 105.87C24.5753 105.996 24.6737 106.129 24.6614 106.271ZM23.5273 106.719C23.6872 106.707 23.8594 106.65 24.0415 106.544C24.2235 106.439 24.317 106.343 24.3367 106.249C24.3588 106.156 24.2973 106.067 24.1571 105.986C24.0169 105.905 23.8619 105.868 23.6971 105.88C23.5322 105.89 23.3625 105.947 23.1854 106.05C23.0083 106.153 22.9099 106.252 22.8877 106.348C22.868 106.443 22.9271 106.532 23.0698 106.613C23.2124 106.694 23.3625 106.729 23.5273 106.719Z" fill="#432626"/>
<path d="M23.0747 105.154L21.6307 105.993L21.3921 105.856L22.044 105.477L21.3749 105.09L20.7254 105.469L20.4868 105.334L21.9308 104.495L22.167 104.63L21.5766 104.975L22.2457 105.361L22.8361 105.017L23.0747 105.154Z" fill="#432626"/>
<path d="M38.895 114.288L38.6958 114.406L38.1128 114.067L37.7192 114.296L38.2677 114.613L38.0709 114.726L37.5224 114.411L37.0673 114.675L37.6527 115.012L37.4535 115.127L36.6318 114.652L38.0734 113.816L38.895 114.288Z" fill="#432626"/>
<path d="M37.4289 113.442L35.9849 114.281L35.7561 114.148L36.4695 113.732C36.5409 113.691 36.6368 113.637 36.7549 113.573C36.873 113.509 36.9468 113.469 36.9738 113.457L36.9664 113.452L35.3281 113.9L35.119 113.779L35.9037 112.835L35.8963 112.83C35.7291 112.94 35.5667 113.041 35.4093 113.132L34.7082 113.541L34.4941 113.418L35.9382 112.579L36.2727 112.771L35.5298 113.671H35.5347L37.0993 113.248L37.4338 113.442H37.4289Z" fill="#432626"/>
<path d="M34.9394 111.998L34.0341 113.154L33.7832 113.009L34.039 112.692L33.483 112.372L32.9418 112.525L32.6909 112.379L34.6835 111.851L34.9418 112.001L34.9394 111.998ZM33.7561 112.293L34.1792 112.537L34.4351 112.229C34.4498 112.21 34.4769 112.178 34.5162 112.133C34.5581 112.089 34.5851 112.06 34.6048 112.04C34.5064 112.077 34.3908 112.111 34.2604 112.148L33.7536 112.291" fill="#432626"/>
<path d="M33.6773 111.275L32.2332 112.114L31.943 111.947L32.3784 110.867L32.371 110.862L32.312 110.901C32.1988 110.977 32.0906 111.046 31.9922 111.105L31.2419 111.541L31.0254 111.415L32.4694 110.576L32.7572 110.744L32.3243 111.819H32.3292C32.3439 111.814 32.3956 111.779 32.4891 111.72C32.5801 111.664 32.6514 111.617 32.7031 111.587L33.4608 111.147L33.6797 111.272L33.6773 111.275Z" fill="#432626"/>
<path d="M29.9851 110.077L29.7563 110.685L29.4857 110.53L29.7145 109.996L29.4783 109.86L28.9027 110.195L28.6665 110.057L30.1105 109.218L30.5213 109.455C30.7083 109.563 30.8116 109.664 30.8338 109.755C30.8534 109.848 30.7919 109.934 30.6517 110.015C30.4697 110.121 30.2507 110.141 29.9851 110.077ZM30.1425 109.944C30.2335 109.949 30.3172 109.929 30.3983 109.883C30.4795 109.836 30.5115 109.787 30.4943 109.735C30.4746 109.683 30.4106 109.627 30.3049 109.565L30.1474 109.474L29.6751 109.747L29.8399 109.843C29.9506 109.907 30.0515 109.942 30.1425 109.947" fill="#432626"/>
<path d="M29.5323 108.884L29.333 108.999L28.7475 108.662L28.3539 108.891L28.9025 109.206L28.7082 109.322L28.1596 109.004L27.7045 109.268L28.29 109.605L28.0882 109.723L27.2666 109.248L28.7106 108.409L29.5323 108.884Z" fill="#432626"/>
</g>
<path d="M72.2206 100.65L79.2218 104.618L86.2106 108.608L93.1896 112.616L94.063 113.12C94.2155 113.213 94.3631 113.332 94.4688 113.494C94.5746 113.654 94.6361 113.868 94.5869 114.067C94.5008 114.478 94.1245 114.697 93.8489 114.849L92.9806 115.356L89.5046 117.383L75.5736 125.445L68.597 129.454L61.6057 133.442L68.5306 129.341L75.4703 125.265L89.3693 117.152L92.8502 115.135L93.721 114.63C93.8686 114.544 94.0088 114.47 94.1195 114.37C94.2302 114.271 94.3139 114.148 94.3409 114.018C94.4024 113.752 94.1958 113.486 93.9326 113.334L93.0666 112.83L86.1073 108.79L79.1578 104.734L72.2206 100.653V100.65Z" fill="#432626"/>
</g>
<defs>
<filter id="filter0_f_1_514" x="25.6" y="-45.4" width="121.8" height="121.8" filterUnits="userSpaceOnUse" color-interpolation-filters="sRGB">
<feFlood flood-opacity="0" result="BackgroundImageFix"/>
<feBlend mode="normal" in="SourceGraphic" in2="BackgroundImageFix" result="shape"/>
<feGaussianBlur stdDeviation="20.7" result="effect1_foregroundBlur_1_514"/>
</filter>
<linearGradient id="paint0_linear_1_514" x1="89" y1="105.833" x2="-0.386708" y2="99.741" gradientUnits="userSpaceOnUse">
<stop stop-color="#E3A255"/>
<stop offset="1" stop-color="#F19D3A"/>
</linearGradient>
<linearGradient id="paint1_linear_1_514" x1="15.8106" y1="123.867" x2="104.732" y2="123.867" gradientUnits="userSpaceOnUse">
<stop stop-color="white" stop-opacity="0.4"/>
<stop offset="0.19" stop-color="white" stop-opacity="0.41"/>
<stop offset="0.35" stop-color="white" stop-opacity="0.46"/>
<stop offset="0.5" stop-color="white" stop-opacity="0.53"/>
<stop offset="0.65" stop-color="white" stop-opacity="0.62"/>
<stop offset="0.79" stop-color="white" stop-opacity="0.75"/>
<stop offset="0.93" stop-color="white" stop-opacity="0.91"/>
<stop offset="1" stop-color="white"/>
</linearGradient>
<linearGradient id="paint2_linear_1_514" x1="15.8103" y1="134.1" x2="104.732" y2="134.1" gradientUnits="userSpaceOnUse">
<stop stop-color="white"/>
<stop offset="1" stop-color="white" stop-opacity="0.4"/>
</linearGradient>
<linearGradient id="paint3_linear_1_514" x1="5.55713" y1="118.239" x2="94.4787" y2="118.239" gradientUnits="userSpaceOnUse">
<stop stop-color="white"/>
<stop offset="1" stop-color="white" stop-opacity="0.4"/>
</linearGradient>
<linearGradient id="paint4_linear_1_514" x1="5.55934" y1="108.003" x2="94.4785" y2="108.003" gradientUnits="userSpaceOnUse">
<stop stop-color="white" stop-opacity="0.4"/>
<stop offset="0.19" stop-color="white" stop-opacity="0.41"/>
<stop offset="0.35" stop-color="white" stop-opacity="0.46"/>
<stop offset="0.5" stop-color="white" stop-opacity="0.53"/>
<stop offset="0.65" stop-color="white" stop-opacity="0.62"/>
<stop offset="0.79" stop-color="white" stop-opacity="0.75"/>
<stop offset="0.93" stop-color="white" stop-opacity="0.91"/>
<stop offset="1" stop-color="white"/>
</linearGradient>
<linearGradient id="paint5_linear_1_514" x1="39.1633" y1="90.579" x2="42.3244" y2="85.1005" gradientUnits="userSpaceOnUse">
<stop stop-color="#D7A866"/>
<stop offset="1" stop-color="#E7B19E"/>
</linearGradient>
<linearGradient id="paint6_linear_1_514" x1="37.9603" y1="90.2567" x2="41.2346" y2="84.5839" gradientUnits="userSpaceOnUse">
<stop stop-color="#D7A866"/>
<stop offset="1" stop-color="#E7B19E"/>
</linearGradient>
<linearGradient id="paint7_linear_1_514" x1="37.4659" y1="90.1805" x2="40.8681" y2="84.2888" gradientUnits="userSpaceOnUse">
<stop stop-color="#D7A866"/>
<stop offset="1" stop-color="#E7B19E"/>
</linearGradient>
<linearGradient id="paint8_linear_1_514" x1="42.7796" y1="92.3035" x2="45.5545" y2="87.4991" gradientUnits="userSpaceOnUse">
<stop stop-color="#D7A866"/>
<stop offset="1" stop-color="#E7B19E"/>
</linearGradient>
<linearGradient id="paint9_linear_1_514" x1="36.1326" y1="89.6196" x2="39.397" y2="83.964" gradientUnits="userSpaceOnUse">
<stop stop-color="#D7A866"/>
<stop offset="1" stop-color="#E7B19E"/>
</linearGradient>
<linearGradient id="paint10_linear_1_514" x1="39.712" y1="91.718" x2="43.1191" y2="85.8164" gradientUnits="userSpaceOnUse">
<stop stop-color="#D7A866"/>
<stop offset="1" stop-color="#E7B19E"/>
</linearGradient>
<linearGradient id="paint11_linear_1_514" x1="45.6109" y1="95.1472" x2="48.8778" y2="89.4916" gradientUnits="userSpaceOnUse">
<stop stop-color="#D7A866"/>
<stop offset="1" stop-color="#E7B19E"/>
</linearGradient>
<linearGradient id="paint12_linear_1_514" x1="41.9233" y1="93.2407" x2="45.3304" y2="87.3367" gradientUnits="userSpaceOnUse">
<stop stop-color="#D7A866"/>
<stop offset="1" stop-color="#E7B19E"/>
</linearGradient>
<linearGradient id="paint13_linear_1_514" x1="44.1769" y1="94.7709" x2="47.5766" y2="88.8792" gradientUnits="userSpaceOnUse">
<stop stop-color="#D7A866"/>
<stop offset="1" stop-color="#E7B19E"/>
</linearGradient>
<linearGradient id="paint14_linear_1_514" x1="39.3478" y1="91.7991" x2="42.1202" y2="86.9972" gradientUnits="userSpaceOnUse">
<stop stop-color="#D7A866"/>
<stop offset="1" stop-color="#E7B19E"/>
</linearGradient>
<linearGradient id="paint15_linear_1_514" x1="43.7733" y1="94.5199" x2="47.0476" y2="88.8471" gradientUnits="userSpaceOnUse">
<stop stop-color="#D7A866"/>
<stop offset="1" stop-color="#E7B19E"/>
</linearGradient>
<linearGradient id="paint16_linear_1_514" x1="42.6615" y1="94.0501" x2="45.825" y2="88.5716" gradientUnits="userSpaceOnUse">
<stop stop-color="#D7A866"/>
<stop offset="1" stop-color="#E7B19E"/>
</linearGradient>
<linearGradient id="paint17_linear_1_514" x1="47.2492" y1="123.317" x2="49.8986" y2="118.729" gradientUnits="userSpaceOnUse">
<stop stop-color="#D7A866"/>
<stop offset="1" stop-color="#E7B19E"/>
</linearGradient>
<linearGradient id="paint18_linear_1_514" x1="45.0376" y1="122.274" x2="47.7165" y2="117.636" gradientUnits="userSpaceOnUse">
<stop stop-color="#D7A866"/>
<stop offset="1" stop-color="#E7B19E"/>
</linearGradient>
<linearGradient id="paint19_linear_1_514" x1="50.5235" y1="125.024" x2="53.136" y2="120.497" gradientUnits="userSpaceOnUse">
<stop stop-color="#D7A866"/>
<stop offset="1" stop-color="#E7B19E"/>
</linearGradient>
<linearGradient id="paint20_linear_1_514" x1="53.4362" y1="126.561" x2="56.0585" y2="122.018" gradientUnits="userSpaceOnUse">
<stop stop-color="#D7A866"/>
<stop offset="1" stop-color="#E7B19E"/>
</linearGradient>
<linearGradient id="paint21_linear_1_514" x1="58.6314" y1="129.415" x2="61.362" y2="124.687" gradientUnits="userSpaceOnUse">
<stop stop-color="#D7A866"/>
<stop offset="1" stop-color="#E7B19E"/>
</linearGradient>
<linearGradient id="paint22_linear_1_514" x1="57.1383" y1="128.625" x2="59.8689" y2="123.897" gradientUnits="userSpaceOnUse">
<stop stop-color="#D7A866"/>
<stop offset="1" stop-color="#E7B19E"/>
</linearGradient>
<linearGradient id="paint23_linear_1_514" x1="60.1246" y1="130.207" x2="62.8552" y2="125.476" gradientUnits="userSpaceOnUse">
<stop stop-color="#D7A866"/>
<stop offset="1" stop-color="#E7B19E"/>
</linearGradient>
<clipPath id="clip0_1_514">
<rect width="89" height="127" rx="6" fill="white"/>
</clipPath>
</defs>
</svg>
